<svg width="477" height="786" viewBox="0 0 477 786" fill="none" xmlns="http://www.w3.org/2000/svg">
<path d="M470.024 208.664C475.096 207.608 475.9 210.835 476.103 214.277C476.396 219.263 474.929 224.036 473.868 228.845C467.369 258.318 461.615 287.971 452.461 316.798C450.37 323.382 450.416 330.302 451.606 336.985C452.711 343.191 451.489 348.58 448.44 353.814C444.552 360.489 441.258 367.414 438.945 374.833C437.758 378.639 438.445 381.308 441.745 383.6C444.637 385.608 447.446 387.775 449.673 390.609C451.845 393.373 452.193 396.203 449.185 398.237C435.291 407.635 427.691 422.118 418.823 435.596C414.653 441.932 409.67 447.586 404.259 452.879C402.965 454.145 401.344 455.186 400.785 457.094C401.322 459.089 403.208 459.371 404.635 460.09C420.05 467.847 434.582 477.091 448.961 486.586C451.641 488.356 454.252 490.368 456.468 492.68C460.58 496.969 459.914 501.885 455.006 505.222C453.751 506.075 452.316 506.736 450.877 507.23C436.778 512.068 423.777 519.031 412.338 528.564C400.723 538.244 387.377 537.444 373.786 536.29C367.2 535.73 360.621 535.465 354.039 536.561C350.557 537.14 348.924 539.051 348.921 542.513C348.918 546.372 348.99 550.232 348.898 554.089C348.698 562.398 345.422 564.788 337.749 561.911C324.177 556.821 311.375 550.16 299.155 542.345C285.141 533.383 270.639 525.314 255.355 518.737C248.51 515.792 247.524 516.492 245.655 523.847C240.786 543.012 238.701 562.614 236.415 582.186C234.414 599.321 232.273 616.441 230.51 633.601C229.424 644.176 228.495 654.803 228.256 665.424C227.468 700.304 213.078 728.287 187.039 750.941C170.521 765.312 151.524 775.109 131.635 783.53C130.929 783.829 130.191 784.051 129.462 784.291C124.131 786.047 118.832 786.895 114.538 782.136C110.664 777.841 110.284 769.972 113.593 764.27C117.78 757.056 124.417 753.987 132.463 753.898C141.221 753.801 150.089 754.228 158.641 752.423C174.924 748.987 186.137 738.078 195.661 725.149C206.466 710.479 210.708 693.214 214.501 675.852C218.947 655.495 220.861 634.802 222.102 614.026C223.793 585.716 225.668 557.418 227.412 529.113C227.63 525.574 227.591 522.015 227.561 518.466C227.519 513.509 226.657 512.876 222.065 515.142C208.692 521.742 195.404 528.514 182.081 535.214C169.572 541.504 157.083 547.88 142.843 549.266C135.972 549.935 129.103 550.467 122.168 549.879C118.139 549.537 117.129 547.611 118.031 544.034C118.069 543.884 118.123 543.739 118.163 543.59C120.894 533.399 120.982 533.101 110.881 530.096C97.1852 526.022 85.3173 519.27 75.1214 509.084C64.2199 498.194 51.4204 489.465 39.8523 479.308C36.8231 476.648 34.264 473.589 31.8631 470.371C29.8243 467.637 30.0843 465.538 32.9357 463.351C42.043 456.367 51.4586 450.358 63.2622 448.903C68.3958 448.27 73.31 446.144 78.0993 444.009C81.6629 442.421 82.4952 440.291 80.3134 436.754C75.0204 428.175 68.5013 420.592 61.8238 413.129C47.9594 397.634 33.7269 382.469 20.3707 366.519C17.0088 362.504 13.7215 358.422 11.0675 353.876C9.00423 350.341 9.64514 347.433 12.9886 345.068C16.531 342.562 20.4734 340.813 24.3746 339.012C28.3297 337.186 29.4051 334.457 27.8781 330.387C26.1959 325.903 24.2459 321.561 22.0646 317.302C19.256 311.818 16.5159 306.293 13.9288 300.701C11.6832 295.847 11.0249 290.956 12.3708 285.466C14.4041 277.171 11.4298 268.996 10.4981 260.762C8.29485 241.292 4.06107 222.2 0.279418 203.02C0.13879 202.307 0.261523 201.541 0.261523 200.095C7.63805 200.825 13.2307 204.083 17.4231 209.679C21.3001 214.854 24.6495 220.429 28.5528 225.583C48.8192 252.338 73.5025 273.626 104.612 286.773C110.126 289.103 115.847 290.828 121.991 290.803C130.247 290.77 132.517 292.439 134.907 300.42C138.332 311.857 142.403 322.942 149.813 332.513C155.147 339.404 161.288 345.386 168.705 349.959C170.612 351.135 172.844 352.905 175.044 351.16C177.187 349.46 176.208 346.798 175.538 344.667C171.246 331.024 164.511 318.556 156.774 306.636C151.743 298.883 146.398 291.332 141.064 283.783C137.654 278.958 136.192 274.282 140.336 269.05C142.04 266.899 142.421 264.216 140.991 261.631C133.98 248.952 134.098 235.21 135.705 221.501C137.129 209.361 136.535 197.817 130.362 186.991C130.077 186.491 130.02 185.861 129.808 185.122C131.849 184.117 133.516 185.253 135.157 185.696C151.644 190.141 167.584 196.188 183.458 202.429C190.832 205.327 192.362 204.297 192.496 196.17C192.72 182.595 192.68 169.017 193.417 155.449C193.78 148.765 194.558 142.713 202.802 141.309C204.856 140.959 206.029 139.2 206.467 136.993C207.132 133.64 207.17 130.259 207.378 126.871C207.8 119.978 211.164 117.644 217.82 119.086C223.922 120.408 228.975 124.1 234.644 126.596C236.813 124.449 236.935 121.712 237.676 119.291C240.744 109.265 243.707 99.2196 248.597 89.8638C251.32 84.6544 255.078 81.3024 261.228 81.4586C263.966 81.5281 265.521 79.9689 266.381 77.6261C274.487 55.5364 285.343 34.3739 288.861 10.7363C289.378 7.26393 289.516 3.7347 289.826 0.269697C292.264 -0.457688 292.926 1.51381 293.99 2.64753C305.376 14.7784 310.617 29.7836 313.843 45.7163C315.375 53.2826 316.506 60.9527 316.485 68.6432C316.445 83.7854 317.457 98.8325 319.127 113.862C319.762 119.576 318.458 125.237 318.23 130.936C317.861 140.179 319.544 142.171 328.652 142.586C334.631 142.859 336.422 144.325 336.779 150.836C337.705 167.776 338.356 184.73 334.656 201.492C333.82 205.279 333.912 209.144 333.962 213.01C334.007 216.559 335.541 217.772 339.082 217.731C349.825 217.609 360.576 217.141 371.306 218.441C380.139 219.511 381.968 221.54 380.279 230.463C378.908 237.711 376.99 244.855 375.317 252.046C375.177 252.646 374.857 253.283 374.949 253.849C377.67 270.662 368.428 285.221 366.097 301.088C365.211 307.115 361.946 312.305 358.506 317.297C348.454 331.889 338.448 346.513 328.447 361.14C327.509 362.513 326.739 364.001 325.918 365.391C329.753 368.391 332.604 368.317 335.097 364.858C337.065 362.129 338.573 359.051 340.156 356.058C349.218 338.918 359.174 322.49 375.308 310.908C382.225 305.942 389.764 302.159 397.637 299.004C402.685 296.981 407.393 294.4 410.928 290.121C419.475 279.777 428.907 270.254 438.05 260.462C447.787 250.035 454.392 237.808 459.064 224.382C461.182 218.296 463.173 211.949 470.024 208.664Z" fill="#BB6830"/>
</svg>
