<svg width="78" height="129" viewBox="0 0 78 129" fill="none" xmlns="http://www.w3.org/2000/svg">
<path d="M76.9975 34.2467C77.8287 34.0732 77.9606 34.6031 77.9938 35.1684C78.0418 35.9871 77.8013 36.771 77.6276 37.5606C76.5624 42.4005 75.6193 47.2698 74.1191 52.0035C73.7765 53.0848 73.784 54.2211 73.979 55.3185C74.1601 56.3377 73.9599 57.2227 73.4602 58.0821C72.8229 59.1782 72.283 60.3154 71.904 61.5336C71.7095 62.1586 71.8221 62.5969 72.3629 62.9732C72.8368 63.303 73.2973 63.6589 73.6623 64.1243C74.0182 64.5781 74.0752 65.0429 73.5823 65.3769C71.3052 66.9202 70.0597 69.2984 68.6061 71.5116C67.9228 72.5521 67.1061 73.4806 66.2193 74.3498C66.0072 74.5577 65.7416 74.7286 65.65 75.0419C65.738 75.3695 66.047 75.4159 66.281 75.5338C68.8072 76.8076 71.189 78.3257 73.5456 79.8849C73.9848 80.1755 74.4126 80.5058 74.7759 80.8855C75.4498 81.5898 75.3406 82.3971 74.5363 82.945C74.3306 83.0852 74.0954 83.1937 73.8596 83.2748C71.5489 84.0693 69.4181 85.2127 67.5434 86.7781C65.6398 88.3677 63.4525 88.2364 61.2251 88.0468C60.1457 87.9549 59.0675 87.9114 57.9888 88.0913C57.4181 88.1864 57.1504 88.5002 57.15 89.0688C57.1495 89.7024 57.1613 90.3363 57.1461 90.9696C57.1134 92.3341 56.5765 92.7266 55.3189 92.2541C53.0947 91.4183 50.9966 90.3244 48.9938 89.0411C46.6971 87.5695 44.3203 86.2444 41.8154 85.1644C40.6936 84.6808 40.532 84.7957 40.2257 86.0035C39.4277 89.1507 39.086 92.3695 38.7113 95.5835C38.3833 98.3972 38.0324 101.209 37.7436 104.026C37.5657 105.763 37.4134 107.508 37.3741 109.252C37.245 114.98 34.8866 119.575 30.6191 123.295C27.9119 125.655 24.7985 127.264 21.5389 128.647C21.4233 128.696 21.3023 128.732 21.1828 128.772C20.309 129.06 19.4406 129.199 18.7369 128.418C18.1019 127.712 18.0396 126.42 18.582 125.484C19.2682 124.299 20.356 123.795 21.6747 123.781C23.11 123.765 24.5633 123.835 25.9649 123.538C28.6335 122.974 30.4714 121.183 32.0321 119.06C33.803 116.651 34.4982 113.816 35.1198 110.965C35.8486 107.622 36.1622 104.224 36.3656 100.812C36.6427 96.1633 36.9501 91.5164 37.2359 86.8682C37.2716 86.2871 37.2652 85.7027 37.2603 85.12C37.2534 84.3059 37.112 84.2019 36.3595 84.5741C34.1679 85.6578 31.9901 86.7699 29.8066 87.8701C27.7564 88.903 25.7096 89.9501 23.3759 90.1776C22.2497 90.2874 21.124 90.3749 19.9873 90.2783C19.3271 90.2221 19.1615 89.9059 19.3094 89.3185C19.3156 89.2939 19.3244 89.27 19.3309 89.2456C19.7786 87.5721 19.793 87.5231 18.1376 87.0297C15.893 86.3607 13.9479 85.252 12.2769 83.5793C10.4903 81.7909 8.39256 80.3576 6.49667 78.6897C6.0002 78.2529 5.58081 77.7506 5.18732 77.2221C4.85318 76.7732 4.89579 76.4285 5.3631 76.0694C6.8557 74.9225 8.39882 73.9358 10.3333 73.6968C11.1747 73.5928 11.9801 73.2438 12.765 72.8932C13.349 72.6325 13.4854 72.2827 13.1278 71.7019C12.2604 70.293 11.1919 69.0479 10.0976 67.8224C7.82534 65.2779 5.49277 62.7876 3.30382 60.1684C2.75284 59.5091 2.21409 58.8388 1.77913 58.0922C1.44097 57.5117 1.54601 57.0342 2.09396 56.6459C2.67453 56.2344 3.32065 55.9472 3.96003 55.6514C4.60823 55.3516 4.78447 54.9035 4.53421 54.2351C4.25852 53.4988 3.93894 52.7858 3.58143 52.0863C3.12114 51.1857 2.67206 50.2786 2.24806 49.3603C1.88003 48.5632 1.77215 47.7601 1.99272 46.8585C2.32597 45.4964 1.8385 44.1538 1.68581 42.8019C1.32471 39.6045 0.630838 36.4694 0.0110632 33.3198C-0.0119844 33.2027 0.00813038 33.077 0.00813038 32.8395C1.21707 32.9594 2.13365 33.4944 2.82075 34.4134C3.45615 35.2631 4.00507 36.1787 4.64478 37.0249C7.96625 41.4186 12.0116 44.9143 17.1102 47.0732C18.0138 47.4558 18.9514 47.7391 19.9583 47.7349C21.3114 47.7294 21.6835 48.0035 22.0752 49.3141C22.6365 51.1922 23.3037 53.0125 24.5181 54.5842C25.3924 55.7157 26.3988 56.6981 27.6144 57.4491C27.9269 57.6421 28.2927 57.9327 28.6532 57.6462C29.0044 57.3671 28.8441 56.9299 28.7342 56.5801C28.0308 54.3397 26.9271 52.2923 25.659 50.3348C24.8344 49.0618 23.9585 47.8218 23.0842 46.5822C22.5254 45.7897 22.2858 45.0219 22.965 44.1627C23.2442 43.8096 23.3066 43.3691 23.0723 42.9445C21.9233 40.8625 21.9425 38.6059 22.206 36.3546C22.4393 34.3611 22.342 32.4654 21.3304 30.6877C21.2837 30.6057 21.2743 30.5021 21.2396 30.3808C21.5741 30.2158 21.8471 30.4024 22.1162 30.4751C24.8182 31.205 27.4307 32.198 30.0323 33.2228C31.2407 33.6987 31.4915 33.5296 31.5135 32.195C31.5501 29.9658 31.5437 27.7361 31.6644 25.5082C31.7238 24.4106 31.8514 23.4167 33.2025 23.1861C33.5392 23.1286 33.7314 22.8399 33.8032 22.4773C33.9122 21.9268 33.9184 21.3716 33.9524 20.8153C34.0216 19.6833 34.5729 19.3001 35.6639 19.5369C36.6638 19.7539 37.4921 20.3602 38.4211 20.7701C38.7766 20.4175 38.7966 19.9681 38.918 19.5706C39.4208 17.9242 39.9065 16.2746 40.7079 14.7382C41.1542 13.8828 41.77 13.3323 42.778 13.358C43.2267 13.3694 43.4815 13.1134 43.6224 12.7287C44.951 9.10126 46.7302 5.62611 47.3068 1.74454C47.3915 1.17433 47.4141 0.594791 47.4649 0.0257956C47.8644 -0.0936498 47.9729 0.230095 48.1474 0.416264C50.0134 2.4083 50.8724 4.87233 51.401 7.48869C51.6521 8.73117 51.8374 9.99068 51.8341 11.2536C51.8275 13.7401 51.9934 16.211 52.2671 18.679C52.3711 19.6174 52.1574 20.547 52.1201 21.4827C52.0596 23.0006 52.3353 23.3277 53.8281 23.3959C54.808 23.4407 55.1016 23.6814 55.16 24.7506C55.3118 27.5323 55.4185 30.3164 54.812 33.0689C54.675 33.6907 54.6901 34.3254 54.6983 34.9603C54.7057 35.5431 54.9572 35.7423 55.5374 35.7357C57.2981 35.7156 59.0602 35.6388 60.8187 35.8522C62.2663 36.0279 62.566 36.361 62.2893 37.8264C62.0646 39.0166 61.7502 40.1897 61.476 41.3705C61.4531 41.4691 61.4007 41.5736 61.4157 41.6666C61.8616 44.4274 60.347 46.8182 59.9649 49.4238C59.8198 50.4135 59.2846 51.2658 58.7209 52.0856C57.0734 54.4816 55.4335 56.8831 53.7946 59.2851C53.6408 59.5105 53.5146 59.7549 53.38 59.9832C54.0085 60.4759 54.4758 60.4636 54.8844 59.8957C55.2068 59.4474 55.4541 58.942 55.7134 58.4505C57.1987 55.6359 58.8304 52.9382 61.4745 51.0363C62.6081 50.2209 63.8437 49.5997 65.1341 49.0815C65.9614 48.7493 66.7329 48.3256 67.3123 47.6229C68.713 45.9243 70.2589 44.3604 71.7573 42.7526C73.353 41.0402 74.4356 39.0325 75.2013 36.8278C75.5484 35.8284 75.8747 34.7861 76.9975 34.2467Z" fill="#BB6830"/>
</svg>
