<svg width="475" height="786" viewBox="0 0 475 786" fill="none" xmlns="http://www.w3.org/2000/svg">
<path d="M146.872 188.335C161.827 193.431 176.076 200.66 192.789 203.693C192.789 199.445 192.665 195.639 192.812 191.844C193.325 178.558 193.861 165.273 194.54 151.995C194.794 147.046 196.389 142.885 201.662 140.831C205.397 139.375 207.282 136.105 207.692 132.12C208.057 128.573 208.303 125.013 208.626 121.154C217.869 120.227 227.656 116.863 233.983 129.024C235.198 125.846 236.06 123.812 236.76 121.724C239.767 112.756 242.703 103.765 245.71 94.7975C247.97 88.0577 251.711 83.0727 259.545 82.2813C263.083 81.9239 265.602 79.4595 266.831 76.132C273.472 58.1586 280.42 40.2823 286.39 22.0864C288.604 15.341 288.445 7.81737 289.452 0C292.089 2.22726 295.466 4.45446 298.053 7.38044C305.568 15.8832 308.758 26.4338 311.271 37.2185C314.749 52.1429 314.89 67.3945 315.834 82.5816C316.46 92.6455 317.887 102.658 318.627 112.717C318.886 116.225 318.237 119.812 317.866 123.348C317.561 126.261 316.771 129.145 316.696 132.055C316.533 138.354 319.266 141.401 325.556 142.472C328.202 142.922 330.906 143.16 333.467 143.898C334.464 144.185 335.14 145.585 335.931 147.08C335.635 148.773 335.371 149.865 334.839 150.962L334.615 152.863C330.94 159.344 327.33 165.547 323.425 171.709L320.695 176.965C319.335 179.07 318.064 180.903 316.734 182.448L309.81 192.954C299.82 206.372 289.904 219.547 279.845 232.474C277.878 235.002 277.11 237.765 275.189 238.15C275.841 231.659 277.066 217.033 277.959 210.831C278.109 210.265 278.037 209.747 277.947 208.891C278.44 203.914 278.953 199.275 279.8 194.666L279.881 189.82C280.186 186.644 280.524 183.781 281.074 180.871C281.24 180.318 281.195 179.813 281.121 178.969C284.413 146.896 287.734 115.163 291.164 83.1153C292.185 74.4491 293.097 66.0981 294.009 57.7471C293.599 57.7061 293.189 57.6651 292.779 57.6241C291.8 66.2079 290.821 74.7917 289.784 83.6875C287.479 102.543 285.178 121.079 282.996 139.63C278.799 175.328 274.707 211.037 270.47 246.73C269.869 251.794 268.7 256.79 267.794 261.817C261.781 255.318 256.96 248.735 251.849 242.385C242.222 230.426 234.919 217.071 228.788 203.137C221.325 186.176 214.58 168.899 207.522 151.465C206.496 148.149 205.472 145.127 204.448 142.105C204.076 142.221 203.705 142.338 203.333 142.454C204.407 145.887 205.481 149.319 206.604 153.048C217.477 188.742 231.292 222.744 254.214 252.273C260.304 260.119 263.618 267.89 262.353 278.256C264.819 302.296 257.619 326.835 255.068 351.108C254.262 358.778 252.519 366.349 251.128 374.41C245.54 371.745 242.39 367.656 239.881 363.04C236.709 357.202 233.709 351.271 230.682 345.355C205.376 295.89 179.471 246.748 151.504 198.721C150.666 197.282 149.85 195.68 148.818 194.361C148.437 193.216 145.726 190.209 146.872 188.335Z" fill="#BB6830"/>
<path d="M116.937 290.004C119.34 289.805 120.979 289.413 123.383 289.405C127.833 289.389 130.882 291.494 132.356 295.795C134.343 301.592 136.414 307.361 138.41 313.155C143.159 326.937 152.621 337.26 163.233 346.66C166.649 349.685 170.856 351.258 176.378 350.443C175.891 347.556 175.633 344.7 174.908 341.967C171.759 330.098 166.035 319.403 159.369 309.207C153.565 300.329 147.628 291.531 141.496 282.876C137.78 277.631 135.976 272.788 140.259 266.79C141.498 265.054 141.592 261.136 140.46 259.293C133.069 247.258 134.218 234.35 135.612 221.288C136.874 209.473 136.983 197.766 130.97 186.906C130.807 186.612 130.907 186.174 130.827 184.876C135.669 185.885 140.225 186.834 145.152 188.076C145.541 188.67 145.745 189.752 146.014 190.393C146.482 192.03 147.07 193.411 147.863 194.938C148.434 195.13 149.706 199.253 150.482 200.708C159.506 217.631 168.767 234.43 177.572 251.465C198.123 291.226 218.658 330.999 238.76 370.987C244.634 382.673 247.255 395.305 244.099 408.582C242.06 417.161 240.39 425.828 238.58 434.461C237.969 437.373 237.437 440.301 236.667 444.263C230.721 434.888 225.381 426.468 220.04 418.048C219.728 418.237 219.416 418.426 219.104 418.615C219.223 419.059 219.285 419.527 219.468 419.943C222.992 427.994 226.915 435.897 229.938 444.13C232.115 450.059 233.413 456.373 234.486 462.62C234.486 463.621 233.693 466.816 230.419 465.253C225.812 463.055 221.155 460.865 216.853 458.144C202.554 449.103 190.903 437.028 179.221 424.965C174.361 419.947 171.495 414.279 170.683 407.418C168.671 390.398 166.624 373.382 164.536 356.371C164.294 354.406 163.701 352.485 163.271 350.544C162.899 350.618 162.527 350.692 162.155 350.767C163.108 370.195 164.062 389.623 165.016 409.051C164.506 409.227 163.995 409.403 163.485 409.579C161.706 408.03 159.697 406.676 158.185 404.901C148.557 393.599 138.986 382.249 129.558 370.781C128.472 369.46 127.834 367.291 127.92 365.561C128.734 349.238 127.171 333.084 124.55 317.023C123.282 309.251 123.383 301.788 118.852 294.65C118.019 293.339 117.828 292.763 117.315 291.577C116.931 290.425 117.099 290.254 116.937 290.004Z" fill="#BB6830"/>
<path d="M74.6279 269.262C85.8943 275.436 97.1473 281.634 108.445 287.75C109.765 288.465 111.33 288.725 113.217 289.404C114.72 291.475 115.447 293.624 116.552 295.766C117.643 299.715 119.542 303.034 120.003 306.776C121.998 322.981 123.689 339.223 125.448 355.455C125.777 358.498 125.907 361.563 126.129 364.617C124.505 363.841 123.731 362.865 122.924 361.918C114.157 351.632 105.346 341.382 96.6379 331.046C94.1861 328.136 92.0292 324.977 89.9125 321.66C89.5888 314.33 89.906 307.093 88.4043 300.255C81.9895 290.811 81.787 278.876 73.9165 270.432C73.9271 270.449 73.9503 270.484 73.9964 270.245C74.2377 269.759 74.4328 269.511 74.6279 269.262Z" fill="#BB6830"/>
<path d="M281.074 180.871C280.873 180.497 280.883 180.075 281.022 179.481C281.195 179.813 281.24 180.318 281.074 180.871Z" fill="#BB6830"/>
<path d="M277.959 210.831C277.738 210.452 277.739 210.024 277.853 209.413C278.038 209.747 278.109 210.265 277.959 210.831Z" fill="#BB6830"/>
<path d="M409.036 353.181C408.902 353.208 408.651 353.115 408.539 352.924C408.679 352.827 408.918 353.062 409.036 353.181Z" fill="#BB6830"/>
<path d="M337.031 154.03C336.696 158.611 333.143 206.988 333.235 211.56C333.34 216.752 335.156 218.371 340.404 218.446C351.026 218.599 361.651 218.539 372.275 218.575C378.662 218.597 382.784 222.786 380.663 228.69C375.445 243.214 374.812 258.484 372.057 273.406C367.927 295.772 359.457 316.204 344.671 333.884C338.78 340.928 333.823 348.77 328.662 356.398C327.273 358.45 326.244 360.977 325.85 363.415C325.255 367.095 327.867 369.221 331.251 367.75C333.447 366.795 335.671 365.036 336.964 363.041C340.227 358.006 342.694 352.453 345.984 347.439C351.659 338.791 357.364 330.12 363.708 321.966C370.662 313.03 379.727 306.462 390.406 302.541C401.797 298.359 411.031 291.589 418.47 281.973C423.157 275.914 428.458 270.298 433.778 264.766C445.231 252.856 453.436 238.976 459.464 223.701C460.544 220.964 461.447 218.114 462.893 215.58C464.26 213.184 465.935 210.781 468.013 209.015C471.076 206.412 473.832 207.531 474.13 211.52C474.412 215.297 474.201 219.189 473.622 222.939C468.748 254.481 459.938 285.101 451.716 315.86C450.245 321.364 449.046 326.73 450.885 332.732C452.638 338.45 450.54 344.386 448.246 349.886C445.784 355.786 443.018 361.563 440.686 367.513C436.847 377.309 438.916 383.426 447.669 389.188C448.31 389.61 448.942 390.047 449.592 390.455C452.468 392.258 452.431 394.068 449.682 395.992C438.323 403.942 430.461 414.872 422.97 426.318C417.883 434.089 411.789 441.252 405.703 448.304C398.498 456.652 398.591 458.46 408.581 463.248C424.79 471.017 440.183 480.107 454.5 490.987C457.559 493.312 460.596 495.988 458.528 500.244C457.45 502.461 455.463 504.729 453.303 505.825C448.879 508.07 444.088 509.612 439.401 511.312C431.116 514.318 423.643 518.598 417.256 524.744C409.274 532.426 399.599 535.892 388.62 535.637C379.537 535.427 370.462 534.942 361.383 534.575C361 534.56 360.618 534.502 360.235 534.477C349.614 533.777 348.206 535.107 348.058 545.591C348 549.68 347.697 553.767 347.495 557.854C347.326 561.279 345.294 562.369 342.279 561.591C338.823 560.699 335.251 559.89 332.082 558.329C322.572 553.646 313.181 548.712 303.841 543.694C292.021 537.345 280.315 530.786 268.523 524.385C264.143 522.007 259.676 519.788 255.222 517.55C249.394 514.622 246.764 515.307 245.401 521.539C242.182 536.26 238.803 551.023 236.957 565.95C233.597 593.114 231.283 620.408 228.576 647.652C227.311 660.378 226.643 673.185 224.833 685.83C221.205 711.182 207.131 730.666 188.716 747.48C171.291 763.391 151.316 775.09 129.264 783.326C127.358 784.037 125.339 784.448 123.228 785.251C122.016 785.503 120.949 785.503 119.562 785.503C111.695 781.981 111.72 775.265 112.33 768.517C112.917 762.015 116.869 757.781 123.041 756.508C129.139 755.25 135.458 754.414 141.67 754.475C169.838 754.749 187.692 739.325 200.401 716.23C209.212 700.219 213.758 682.685 215.902 664.701C218.687 641.336 220.891 617.887 222.717 594.425C224.682 569.168 225.927 543.854 227.465 518.564C227.563 516.942 227.477 515.309 227.477 512.838C224.01 513.943 220.993 514.527 218.317 515.819C203.809 522.825 189.533 530.328 174.879 537.008C165.734 541.177 156.305 545.324 146.561 547.408C137.099 549.43 127.072 548.805 115.924 549.418C117.305 545.654 118.002 543.012 119.203 540.624C122.17 534.727 121.462 532.744 115.24 530.699C114.755 530.54 114.259 530.403 113.76 530.294C98.1247 526.897 85.4745 518.78 74.251 507.38C66.6793 499.689 57.3118 493.791 48.9878 486.805C43.7161 482.381 38.5934 477.699 33.9482 472.633C30.1104 468.448 30.9914 466.342 34.7971 462.187C42.9516 453.286 53.3076 449.358 64.8393 447.472C69.1107 446.773 73.2917 445.486 77.4852 444.36C79.9626 443.695 80.8293 442.125 80.4246 439.433C79.4296 432.816 76.1999 427.305 71.8396 422.569C60.3962 410.142 48.5794 398.059 37.1351 385.633C30.0313 377.919 23.2533 369.899 16.5061 361.868C14.4689 359.443 12.7934 356.637 11.3589 353.8C8.63568 348.414 9.78452 344.77 15.1496 342.073C18.5591 340.358 22.2075 339.087 25.8184 337.815C28.7801 336.771 30.1024 334.999 28.8172 331.996C26.7129 327.079 24.4686 322.222 22.2392 317.359C18.889 310.053 15.3914 302.811 12.2074 295.433C11.4365 293.646 11.1098 291.328 11.492 289.439C14.3654 275.233 11.4599 261.393 8.98862 247.558C6.29054 232.454 3.20917 217.419 0.325474 202.348C0.118229 201.265 0.161037 200.134 0 197.703C3.88539 199.757 7.36684 200.887 9.9009 203.101C13.8172 206.523 17.3382 210.487 20.5629 214.587C24.2747 219.305 27.6232 224.33 30.8815 229.381C40.634 244.5 53.8543 256.077 68.3396 266.89C73.5657 272.719 71.9962 266.89 77.9359 283.306C79.3595 287.563 81.5786 291.415 82.7513 295.766C83.1616 296.806 83.7144 297.911 84.3512 298.839C87.6276 302.482 87.3637 317.748 87.3606 318.812C83.9036 318.044 75.0691 306.137 73.9168 304.6C70.488 300.469 67.1568 296.079 64.2729 292.053L60.0889 287.305C59.5074 286.761 57.0411 283.709 56.6319 283.09C56.6319 283.09 25.2723 236.961 17.837 227.01C17.5002 227.268 29.6971 246.727 29.3603 246.984C49.5762 277.709 52.2305 279.753 57.7915 287.305C62.8638 293.919 67.8024 300.326 72.8878 306.614C73.2272 307.034 75.0691 308.825 75.0691 308.825C75.4532 309.594 77.3737 311.13 77.5641 311.762C78.0498 312.448 80.4466 314.971 80.6162 315.606C81.2045 316.267 84.0276 318.806 84.3512 319.363C86.0193 322.238 87.9971 324.952 89.9613 327.914C89.784 328.442 89.6203 328.722 89.2218 328.793C65.5584 320.946 43.116 311.174 22.3106 297.841C21.8081 297.519 20.407 296.627 19.7576 296.534C15.9165 294.998 18.2211 296.534 20.1417 298.455C21.8885 299.794 23.3379 301.153 25.1466 302.404C43.2818 314.944 63.0425 324.137 84.0276 330.74C91.8539 333.202 97.9142 337.622 103.02 344.208C117.675 363.115 132.825 381.637 147.77 400.319C148.353 401.048 148.821 401.868 149.999 403.627C147.117 402.766 145.313 402.291 143.551 401.691C134.966 398.768 126.431 395.688 117.805 392.89C85.1288 382.29 51.8045 373.467 20.9719 357.201C18.3039 355.383 15.798 353.768 13.1972 351.968C12.7745 351.548 12.4468 351.313 12.119 351.078C11.8209 351.396 11.5227 351.715 11.2246 352.033C11.7862 352.222 12.3477 352.411 13.0195 352.829C15.4625 354.837 17.7953 356.616 20.3102 358.578C35.8569 368.182 52.6386 374.435 69.4163 380.716C91.8046 389.098 114.23 397.388 136.507 406.057C154.321 412.99 170.08 423.021 183.839 436.621C195.367 448.015 213.242 461.817 228.328 468.614C228.571 468.724 218.725 472.84 218.341 473.224C206.666 478.454 199.638 475.891 186.845 475.912C143.009 475.987 99.4622 470.808 55.8401 467.182C52.1456 466.875 48.4369 466.74 44.7348 466.525C44.7143 466.852 44.6938 467.178 44.6733 467.505C97.4837 474.115 152.882 479.523 206.434 480.522C189.292 504.864 161.954 520.891 139.529 538.778C140.78 538.738 142.024 538.622 143.012 538.058C163.991 526.092 183.777 512.555 200.711 495.105C207.293 488.323 213.405 485.981 221.03 480.522C239.083 468.614 238.327 471.396 245.645 478.601C254.307 487.13 260.387 494.64 269.831 502.232C291.569 519.708 313.863 536.493 335.949 553.536C336.467 553.936 337.197 554.061 337.829 554.315C338.106 553.954 338.383 553.593 338.661 553.231C315.732 532.519 288.519 516.522 268.729 491.031C271.968 491.031 274.613 490.924 277.248 491.047C308.312 492.503 339.373 494.028 370.438 495.464C394.985 496.598 419.536 497.634 444.441 498.812C448.695 498.909 452.594 498.909 456.492 498.909C456.502 498.698 456.511 498.486 456.52 498.275C452.391 498.035 448.261 497.796 443.802 497.519C413.514 494.97 383.559 492.438 353.599 489.955C327.592 487.799 301.598 485.434 275.562 483.695C264.146 482.933 254.797 477.923 245.645 471.945C244.847 471.424 244.275 470.555 243.244 469.477C244.94 468.64 246.252 467.947 247.6 467.333C262.84 460.394 278.255 453.809 293.263 446.402C301.319 442.425 309.455 440.318 318.33 440.578C339.05 441.184 359.772 441.735 380.491 442.381C389.209 442.652 397.922 443.104 406.966 443.488C404.864 442.492 402.933 441.171 400.808 440.663C397.346 439.835 393.773 439.294 390.219 439.061C373.114 437.94 355.99 437.086 338.893 435.86C333.647 435.484 328.463 434.229 323.251 433.376C323.268 432.647 323.285 431.918 323.302 431.189C329.883 430.451 336.463 429.713 343.46 428.928C339.616 427.849 336.02 426.838 331.15 425.471C332.54 424.701 333.26 424.385 333.889 423.94C342.145 418.113 350.341 412.199 358.683 406.496C360.05 405.562 362.021 405.294 363.75 405.146C369.484 404.655 375.308 404.818 380.964 403.903C399.249 400.943 417.474 397.615 436.057 394.474C438.433 394.336 440.473 394.152 442.514 393.968C442.488 393.649 442.461 393.331 442.434 393.012C439.946 393.012 437.458 393.012 434.614 392.965C418.501 394.601 402.744 396.297 386.984 397.961C380.636 398.631 374.28 399.23 368.159 399.839C377.209 390.838 386.286 382.028 395.108 372.97C402.986 364.88 411.134 357.196 420.716 351.086C430.183 345.049 439.445 338.689 449.718 331.859C447.316 332.499 445.792 332.658 444.502 333.294C440.034 335.496 435.565 337.721 431.247 340.2C423.823 344.463 416.512 348.923 409.036 353.181C408.919 353.062 408.68 352.827 408.706 352.55C419.033 331.156 458.409 257.739 466.091 230.852C464.713 231.388 437.497 290.386 436.924 291.416C429.345 305.042 421.132 318.365 414.377 332.389C402.822 356.381 388.011 377.682 367.297 394.614C365.153 396.366 362.651 397.705 360.229 399.082C358.388 400.129 357.183 399.33 356.338 397.465C354.419 393.23 354.671 389.038 356.199 384.775C362.628 366.839 369.072 348.908 375.42 330.943C378.038 323.533 380.43 316.042 382.925 308.588C382.566 308.44 382.208 308.292 381.849 308.143C380.332 311.189 378.545 314.131 377.341 317.296C366.253 346.445 354.375 375.321 346.251 405.51C345.329 408.935 343.653 411.475 340.724 413.433C314.024 431.278 285.649 445.862 255.6 457.172C252.813 458.221 249.827 458.742 246.934 459.508C245.997 459.78 242.766 462.06 242.54 461.7C247.745 447.17 264.183 435.397 274.614 425.056C274.288 424.671 273.962 424.285 273.637 423.9C265.263 429.823 255.612 440.263 246.934 446.402C246.656 445.183 247.732 440.185 247.732 439.704C247.731 438.298 247.715 436.881 247.873 435.488C251.239 405.824 256.913 376.595 264.81 347.816C267.443 338.22 271.929 329.91 280.085 323.241C313.957 295.545 342.249 262.429 370.061 228.899C370.611 228.237 370.904 227.363 371.317 226.587C371.012 226.358 370.707 226.13 370.402 225.901C367.728 228.751 365.072 231.619 362.376 234.449C345.777 251.869 328.406 269.075 311.68 286.163C308.223 288.468 301.154 293.154 299.004 294.998C293.627 299.607 288.249 304.6 284.024 308.143C278.646 312.653 260.781 329.638 263.282 326.11C265.203 321.501 266.976 307.405 268.275 299.607C269.044 294.998 267.013 286.048 269.044 284.627C269.812 278.097 269.812 277.713 272.116 265.421C271.615 262.878 275.189 247.368 274.805 245.063C273.05 240.265 295.818 216.687 299.388 211.56C300.729 209.635 318.36 186.644 319.746 184.759C328.777 172.467 335.968 154.511 337.031 154.03Z" fill="#BB6830"/>
</svg>
