<svg width="98" height="129" viewBox="0 0 98 129" fill="none" xmlns="http://www.w3.org/2000/svg">
<path d="M67.4011 0.0594831C67.9244 0.357956 67.9244 0.357956 68.3064 0.969116C68.5137 1.79646 68.6488 2.62512 68.759 3.47061C68.9317 3.29238 69.1044 3.11415 69.2824 2.93051C69.8906 2.33357 69.8906 2.33357 70.5696 1.87875C71.3656 1.99637 71.3656 1.99637 71.7012 2.33357C71.7905 2.75336 71.8691 3.17549 71.9417 3.59852C71.9817 3.82864 72.0216 4.05876 72.0628 4.29585C72.0928 4.47379 72.1229 4.65173 72.1539 4.83506C72.3989 4.58178 72.3989 4.58178 72.6489 4.32339C74.207 2.7926 74.207 2.7926 75.1244 2.77417C75.775 3.01579 75.775 3.01579 76.1525 3.48837C76.5285 4.31713 76.5295 5.03896 76.4964 5.92946C76.4934 6.08702 76.4903 6.24459 76.4872 6.40693C76.4792 6.79268 76.467 7.17834 76.454 7.56396C76.8274 7.639 77.2009 7.71405 77.5856 7.79137C77.9046 11.4954 76.415 15.2788 74.1625 18.1527C73.8009 18.5704 73.4327 18.9823 73.0592 19.3892C72.9548 19.5037 72.8504 19.6182 72.7429 19.7362C70.8805 21.7573 68.811 23.4276 66.6016 25.0515C66.2757 25.2848 66.2757 25.2848 66.0431 25.5292C66.3193 25.5046 66.3193 25.5046 66.601 25.4795C70.8738 25.1318 75.4448 24.7923 78.9736 27.7535C80.7566 29.6459 81.275 31.7196 81.4757 34.2356C81.5986 35.5964 81.9483 36.6975 82.5594 37.9274C82.8163 38.553 82.8883 38.9591 82.7911 39.6285C81.949 40.1926 81.2776 40.208 80.3015 40.0833C79.7693 39.8658 79.2406 39.6393 78.7172 39.4011C78.1312 39.1924 78.1312 39.1924 77.5856 39.4011C77.306 39.7931 77.306 39.7931 77.0481 40.2681C76.6298 41.0079 76.4625 41.2153 75.7043 41.6752C73.7214 42.2155 71.9776 41.8267 70.117 40.993C67.6176 39.2804 66.2032 36.607 64.6839 34.0589C64.049 32.9977 63.3774 31.9854 62.6483 30.987C62.7025 31.3049 62.7025 31.3049 62.7579 31.6293C62.9179 32.7634 62.925 33.894 62.9312 35.0377C62.9382 35.3563 62.9382 35.3563 62.9453 35.6813C62.9613 38.573 62.0022 40.7265 60.0173 42.798C59.2166 43.5968 58.6231 43.9266 57.4853 44.0204C56.5126 44.0002 55.8174 43.7012 54.9533 43.2671C54.9302 43.4506 54.9072 43.6341 54.8834 43.8231C54.7302 44.6151 54.5041 45.3218 54.2358 46.0792C51.8492 52.8229 50.3646 60.05 49.5215 67.1449C49.4787 67.5052 49.4787 67.5052 49.435 67.8728C48.3617 77.1678 48.3241 86.451 48.3899 95.7984C48.4365 95.6018 48.483 95.4051 48.531 95.2025C49.4386 91.395 50.3413 87.6192 51.7848 83.9731C51.8462 83.8165 51.9076 83.6599 51.9709 83.4986C55.1045 75.6268 60.432 68.5959 67.1748 63.5064C66.9428 63.4349 66.7109 63.3633 66.4719 63.2896C66.1639 63.1915 65.856 63.0932 65.548 62.9947C65.3194 62.9248 65.3194 62.9248 65.0861 62.8535C64.1131 62.5387 63.4066 62.1772 62.6483 61.4597C62.2854 60.7305 62.3118 59.9768 62.422 59.1856C62.8318 58.4944 63.0792 58.1386 63.8365 57.8638C63.9672 57.8498 64.0979 57.8357 64.2325 57.8212C64.2536 57.582 64.2536 57.582 64.275 57.3379C64.6013 56.1777 65.2671 55.5316 66.2412 54.8933C68.3483 54.1086 71.1739 54.4632 73.2033 55.3543C74.8113 56.1678 76.0761 57.2448 77.3593 58.5034C77.2858 58.083 77.2858 58.083 77.2108 57.6542C76.513 53.5486 76.2933 50.1617 78.7305 46.5387C79.4819 45.6105 80.3713 44.9375 81.4331 44.4041C81.8624 44.4231 82.2915 44.4476 82.7203 44.4752C83.7393 44.4898 84.2767 44.4467 85.026 43.7361C85.1462 43.6124 85.2664 43.4887 85.3902 43.3612C85.9268 42.8583 86.3721 42.7965 87.0912 42.8122C87.7461 43.0964 88.1106 43.3335 88.5199 43.9209C88.7005 44.482 88.6861 44.9547 88.6755 45.5411C88.8315 45.4893 88.9876 45.4374 89.1484 45.3839C90.5108 44.9652 91.8193 44.564 93.2019 45.0863C94.0564 45.719 94.6747 46.3421 95.0125 47.3604C95.1658 48.8325 94.9054 49.9977 94.3194 51.3401C94.2117 51.5924 94.2117 51.5924 94.1018 51.8498C92.5605 55.3291 89.9506 56.9452 86.6439 58.5133C86.2043 58.7221 85.7671 58.9351 85.3301 59.1492C83.3629 60.0953 83.3629 60.0953 82.3384 60.0953C82.3384 60.2454 82.3384 60.3955 82.3384 60.5501C82.5088 60.5035 82.6792 60.4569 82.8547 60.4088C87.0947 59.3282 91.0567 59.3877 95.0125 61.4597C96.2361 62.2248 97.2982 63.0967 97.9547 64.416C98.049 65.269 98.0305 65.6635 97.5586 66.3916C97.1102 66.8548 96.6752 67.2377 96.1441 67.5997C96.2188 67.8249 96.2935 68.05 96.3705 68.282C96.484 69.4796 96.484 69.4796 96.3705 70.1012C95.6563 70.8576 95.0173 71.1956 93.979 71.2925C91.3676 71.3575 89.7862 70.6634 87.8924 68.8816C86.9367 67.944 86.0955 66.923 85.2552 65.8816C84.452 64.9071 83.6806 64.305 82.5647 63.7338C82.6394 63.8089 82.7141 63.8839 82.7911 63.9612C83.7782 65.2221 84.5648 66.534 85.2382 67.9835C85.3037 68.1238 85.3692 68.2641 85.4368 68.4087C86.2709 70.2571 86.6308 71.9459 86.4122 73.9672C85.7374 75.5211 84.3004 76.2391 82.8052 76.8809C81.8214 77.2142 80.8732 77.3833 79.8489 77.1509C78.9649 76.614 78.3815 75.9627 77.8119 75.1042C77.0694 75.0554 76.3506 75.106 75.6079 75.1469C74.769 75.0984 74.3971 74.9361 73.7381 74.422C73.388 73.9814 73.388 73.9814 73.1157 73.5124C73.0235 73.3576 72.9314 73.2028 72.8364 73.0433C72.1358 71.7005 72.12 70.037 72.5614 68.6027C73.3202 66.9862 74.4526 65.5852 75.5487 64.1886C75.3077 64.2464 75.0667 64.3041 74.8185 64.3636C74.5825 64.4198 74.5825 64.4198 74.3418 64.4771C73.9921 64.5605 73.6425 64.6446 73.2932 64.7294C72.4802 64.9246 71.677 65.1023 70.8516 65.2386C67.4453 65.8071 65.0203 67.9453 62.6483 70.3287C62.4773 70.5004 62.3064 70.6722 62.1302 70.8492C54.0191 79.4734 51.0741 90.8319 48.6353 102.088C48.2366 103.918 47.7881 105.73 47.2981 107.537C46.963 108.774 46.6593 110.018 46.353 111.262C46.5081 111.105 46.6631 110.948 46.8229 110.786C47.4061 110.196 47.99 109.607 48.5742 109.018C48.8255 108.764 49.0766 108.51 49.3275 108.256C50.589 106.979 51.8462 105.712 53.2098 104.544C53.7929 104.043 54.3495 103.516 54.9109 102.99C55.9746 102.002 57.0732 101.071 58.204 100.16C58.7889 99.6742 59.338 99.1639 59.89 98.641C63.571 95.2928 68.685 93.0061 73.7213 93.2249C79.8581 93.8596 84.9253 96.5536 88.8938 101.381C91.4922 104.629 94.1752 108.541 95.2388 112.627C95.1566 113.287 95.1566 113.287 95.0125 113.764C93.7749 113.676 93.0928 113.171 92.1835 112.385C87.9563 108.905 83.1021 107.371 77.7722 106.521C74.8049 106.043 72.015 105.248 69.1636 104.313C69.012 104.263 68.8605 104.214 68.7043 104.163C68.2898 104.026 67.8759 103.888 67.4621 103.75C63.4529 102.558 59.5698 103.443 55.9452 105.354C48.6878 109.623 44.2262 117.135 40.9827 124.686C40.3211 126.194 39.5988 127.592 38.4317 128.773C38.2076 128.848 37.9836 128.923 37.7527 129C37.6033 128.85 37.454 128.7 37.3001 128.545C37.318 126.925 37.937 125.85 38.7429 124.48C43.5 116.077 43.5 116.077 44.7687 106.714C44.1717 105.082 42.8583 104.1 41.3739 103.303C39.7611 102.655 38.1303 102.244 36.3948 102.166C36.2489 102.154 36.103 102.142 35.9527 102.13C32.496 101.971 29.0278 103.229 25.7478 104.181C25.593 104.226 25.4382 104.271 25.2787 104.317C24.8523 104.442 24.4263 104.567 24.0003 104.692C22.3092 105.16 20.731 105.166 18.982 105.165C18.8312 105.165 18.6803 105.165 18.5248 105.165C16.14 105.165 13.7927 105.017 11.4205 104.771C8.16969 104.437 5.35823 104.891 2.31545 106.081C1.56463 106.325 0.964435 106.329 0.183057 106.259C-0.00889289 105.725 -0.0845841 105.454 0.128244 104.917C2.88301 100.797 6.87042 98.2935 11.2729 96.2532C11.6716 96.0672 11.6716 96.0672 12.0783 95.8774C13.4779 95.2501 14.8915 94.7145 16.351 94.2492C16.4982 94.2021 16.6454 94.155 16.797 94.1064C21.0487 92.8041 26.0479 93.2696 30.2841 94.4339C30.4378 94.4753 30.5916 94.5167 30.7501 94.5593C35.2531 95.8104 39.3943 98.5246 42.7363 101.77C43.17 102.153 43.5627 102.39 44.0898 102.621C42.8189 97.0544 39.5679 93.1848 34.8105 90.1132C33.3447 89.1957 31.8671 88.2978 30.3858 87.4059C23.8312 83.4581 18.015 78.8368 16.0443 71.0481C16.0005 70.8661 15.9567 70.6841 15.9116 70.4965C15.8638 70.3007 15.816 70.1048 15.7667 69.903C15.252 67.7407 14.8821 65.5576 14.5263 63.3643C14.461 62.9704 14.3956 62.5766 14.33 62.1828C14.2014 61.4096 14.0745 60.636 13.9488 59.8623C13.8253 59.1053 13.6966 58.3494 13.5638 57.594C13.5321 57.4112 13.5004 57.2284 13.4677 57.0401C13.4084 56.6989 13.3479 56.3578 13.286 56.017C13.0997 54.9358 13.0213 53.9162 13.0835 52.8182C13.2329 52.6681 13.3822 52.518 13.5361 52.3634C14.3183 52.3846 14.6257 52.5522 15.207 53.0847C15.8058 53.7348 16.3282 54.4106 16.832 55.1349C16.9755 55.3384 16.9755 55.3384 17.1219 55.5461C17.7958 56.5088 18.4439 57.4872 19.0875 58.4706C20.2457 60.2397 21.4372 61.9011 22.8154 63.5064C22.9274 63.6492 23.0394 63.7919 23.1549 63.939C23.8013 64.7527 24.5082 65.3873 25.3191 66.0363C28.3493 68.4804 30.7589 71.2009 32.5004 74.716C32.578 74.8725 32.6557 75.0289 32.7356 75.1901C33.7112 77.1873 34.5296 79.2493 35.3599 81.3104C36.648 84.4995 38.0789 87.5822 39.7896 90.568C39.9512 90.8519 40.1127 91.1359 40.2741 91.4199C40.413 91.6641 40.5518 91.9083 40.6949 92.1598C40.3265 89.7973 39.85 87.5424 39.1398 85.2569C38.1435 82.041 37.2831 78.7964 36.4655 75.5306C35.4585 71.5171 35.4585 71.5171 34.3579 67.5287C34.2976 67.3174 34.2373 67.1062 34.1751 66.8885C33.5828 64.7706 33.5828 64.7706 32.0663 63.279C31.8863 63.1655 31.7063 63.0521 31.5209 62.9352C31.3368 62.8235 31.1527 62.7118 30.963 62.5968C28.2468 60.9481 26.544 58.8273 25.5313 55.7745C25.4888 54.9644 25.4888 54.9644 25.5313 54.1827C25.6806 54.0326 25.83 53.8825 25.9839 53.7278C26.7301 53.8028 27.0301 53.8694 27.5682 54.4101C27.5809 54.1009 27.5809 54.1009 27.5938 53.7856C27.8108 49.7466 27.8107 49.7466 29.1524 48.27C29.9938 48.3487 30.4221 48.4221 31.0762 48.9807C31.6247 49.4915 31.6247 49.4915 32.3917 49.3502C32.5924 49.2939 32.7931 49.2377 32.9999 49.1797C33.5182 49.9609 33.493 50.3134 33.4526 51.2264C34.0476 50.8802 34.5488 50.5797 35.0368 50.0893C35.4753 50.0893 35.4753 50.0893 35.9421 50.3167C37.2597 52.3535 37.3161 55.0138 37.0737 57.3664C36.8012 58.6481 36.4355 59.8423 35.798 60.9889C35.1857 62.3745 35.5407 63.6937 35.9386 65.0983C35.9864 65.2737 36.0342 65.4491 36.0835 65.6298C36.1874 66.0107 36.2923 66.3913 36.3979 66.7716C36.6882 67.8181 36.9718 68.8665 37.2559 69.9147C37.3455 70.2446 37.3455 70.2446 37.4369 70.5811C38.0318 72.7797 38.5882 74.9876 39.1419 77.1969C41.1881 85.3514 43.4099 93.4544 45.9004 101.484C46.1671 99.3358 46.1638 97.1904 46.1718 95.0299C46.1745 94.3566 46.1789 93.6834 46.1838 93.0102C46.1976 91.0969 46.2098 89.1837 46.2175 87.2703C46.2778 73.1237 47.0783 58.2576 52.0111 44.8589C51.8002 44.8023 51.5892 44.7458 51.3719 44.6875C50.5963 44.3817 50.411 44.2205 50.0166 43.5087C49.9265 43.3518 49.8363 43.195 49.7434 43.0334C49.274 42.0844 49.2715 41.3161 49.2811 40.2681C49.2831 39.9788 49.2851 39.6894 49.2873 39.3913C49.2912 39.0585 49.2912 39.0585 49.2952 38.7189C49.0453 38.7387 49.0453 38.7387 48.7904 38.7589C46.9688 38.8435 46.9688 38.8435 46.0984 38.1788C45.2388 36.9695 45.3286 35.8522 45.4477 34.3981C45.9373 32.1312 47.5283 30.3517 49.4225 29.0967C50.41 28.5508 51.4371 28.1792 52.5062 27.8317C52.6567 27.7827 52.8073 27.7336 52.9624 27.6831C53.951 27.3855 54.8301 27.3029 55.8586 27.3485C55.8586 27.1984 55.8586 27.0483 55.8586 26.8937C54.1709 26.5987 52.555 26.5308 50.8715 26.891C49.4597 27.1579 48.0839 27.2046 46.6501 27.2063C46.4066 27.2119 46.1631 27.2175 45.9123 27.2232C44.4349 27.2287 43.2655 27.1108 42.0529 26.2114C41.6029 25.7229 41.6029 25.7229 41.3032 25.2165C41.1932 25.0371 41.0832 24.8577 40.9699 24.6729C40.6949 24.1648 40.6949 24.1648 40.412 23.4541C39.8733 22.5648 39.1459 22.1556 38.2929 21.5851C37.4014 20.9635 36.9285 20.4625 36.706 19.3892C36.8684 18.606 37.1575 18.3081 37.7757 17.8151C38.8251 17.2163 39.9416 17.0431 41.1193 16.8593C43.1296 16.5016 44.8044 15.5882 46.5793 14.6136C47.9917 13.8383 49.0919 13.717 50.6691 14.022C53.1447 14.7975 54.8928 16.9022 56.0792 19.1191C56.5535 20.0337 57.0032 20.9589 57.4428 21.8907C57.4428 21.3297 57.3195 20.8457 57.1953 20.2979C55.8495 14.0922 55.607 8.15531 59.0271 2.56097C59.5965 1.88497 59.5965 1.88497 60.1587 1.42393C61.0216 1.35287 61.0216 1.35287 61.743 1.42393C61.8924 1.8742 62.0417 2.32447 62.1956 2.78838C62.2864 2.68666 62.3771 2.58494 62.4706 2.48014C63.7947 1.06523 65.3473 -0.304692 67.4011 0.0594831Z" fill="#FFF3F3"/>
</svg>
