<svg width="563" height="740" viewBox="0 0 563 740" fill="none" xmlns="http://www.w3.org/2000/svg">
<path d="M386.938 0.38997C389.939 2.10144 389.939 2.10144 392.129 5.60588C393.318 10.3499 394.093 15.1015 394.725 19.9496C395.715 18.9276 396.706 17.9056 397.726 16.8527C401.214 13.4297 401.214 13.4297 405.107 10.8218C409.671 11.4963 409.671 11.4963 411.596 13.4297C412.108 15.8369 412.558 18.2574 412.975 20.6831C413.204 22.0026 413.433 23.3221 413.669 24.6816C413.841 25.702 414.014 26.7223 414.191 27.7735C415.596 26.3212 415.596 26.3212 417.03 24.8396C425.964 16.0619 425.964 16.0619 431.224 15.9562C434.955 17.3417 434.955 17.3417 437.12 20.0515C439.276 24.8037 439.281 28.9427 439.092 34.0489C439.074 34.9524 439.057 35.8559 439.039 36.7867C438.993 38.9987 438.923 41.2101 438.849 43.4212C440.99 43.8515 443.131 44.2819 445.337 44.7252C447.167 65.9646 438.625 87.659 425.709 104.138C423.636 106.533 421.524 108.895 419.382 111.228C418.784 111.885 418.185 112.541 417.569 113.218C406.889 124.807 395.023 134.384 382.354 143.696C380.485 145.034 380.485 145.034 379.152 146.435C380.735 146.294 380.735 146.294 382.351 146.15C406.851 144.156 433.062 142.21 453.296 159.19C463.52 170.041 466.492 181.932 467.643 196.359C468.348 204.161 470.353 210.475 473.858 217.528C475.331 221.115 475.743 223.443 475.186 227.282C470.357 230.516 466.507 230.605 460.91 229.89C457.859 228.643 454.827 227.344 451.826 225.978C448.466 224.781 448.466 224.781 445.337 225.978C443.734 228.226 443.734 228.226 442.255 230.95C439.856 235.192 438.897 236.38 434.55 239.018C423.18 242.116 413.181 239.886 402.511 235.106C388.18 225.286 380.07 209.956 371.358 195.345C367.717 189.261 363.866 183.456 359.685 177.731C359.997 179.554 359.997 179.554 360.314 181.414C361.231 187.917 361.272 194.4 361.308 200.958C361.348 202.785 361.348 202.785 361.389 204.648C361.48 221.229 355.981 233.578 344.599 245.456C340.008 250.037 336.605 251.928 330.08 252.465C324.503 252.349 320.517 250.635 315.562 248.146C315.43 249.198 315.297 250.25 315.161 251.334C314.282 255.875 312.986 259.927 311.447 264.271C297.763 302.94 289.25 344.38 284.416 385.063C284.17 387.129 284.17 387.129 283.919 389.237C277.765 442.535 277.549 495.766 277.927 549.365C278.194 548.237 278.461 547.11 278.736 545.948C283.94 524.115 289.116 502.465 297.393 481.558C297.745 480.66 298.097 479.762 298.46 478.836C316.429 433.699 346.977 393.383 385.641 364.2C384.311 363.79 382.981 363.379 381.61 362.957C379.844 362.394 378.078 361.83 376.313 361.266C375.002 360.865 375.002 360.865 373.664 360.456C368.085 358.651 364.034 356.578 359.685 352.464C357.605 348.283 357.756 343.961 358.388 339.424C360.738 335.46 362.156 333.42 366.499 331.845C367.248 331.764 367.998 331.683 368.77 331.6C368.89 330.229 368.89 330.229 369.013 328.829C370.884 322.176 374.702 318.472 380.287 314.812C392.37 310.312 408.572 312.345 420.208 317.455C429.429 322.12 436.682 328.295 444.04 335.512C443.618 333.102 443.618 333.102 443.188 330.643C439.187 307.101 437.927 287.68 451.902 266.906C456.211 261.583 461.311 257.724 467.399 254.666C469.861 254.774 472.321 254.915 474.78 255.073C480.623 255.157 483.704 254.91 488.001 250.835C488.69 250.126 489.379 249.416 490.09 248.686C493.166 245.802 495.72 245.448 499.843 245.538C503.599 247.167 505.689 248.526 508.035 251.895C509.071 255.112 508.988 257.823 508.927 261.185C509.822 260.888 510.717 260.59 511.639 260.284C519.451 257.883 526.954 255.583 534.882 258.578C539.782 262.205 543.327 265.778 545.264 271.617C546.143 280.058 544.65 286.74 541.29 294.437C540.673 295.884 540.673 295.884 540.042 297.36C531.205 317.311 516.239 326.577 497.278 335.569C494.758 336.766 492.251 337.988 489.745 339.215C478.464 344.64 478.464 344.64 472.59 344.64C472.59 345.501 472.59 346.361 472.59 347.248C473.567 346.981 474.544 346.713 475.551 346.438C499.863 340.242 522.581 340.583 545.264 352.464C552.281 356.851 558.371 361.851 562.135 369.416C562.676 374.307 562.57 376.569 559.864 380.744C557.293 383.4 554.798 385.595 551.753 387.671C552.182 388.962 552.61 390.253 553.051 391.583C553.702 398.45 553.702 398.45 553.051 402.015C548.956 406.352 545.292 408.29 539.338 408.846C524.364 409.218 515.296 405.238 504.437 395.022C498.957 389.646 494.134 383.791 489.315 377.82C484.71 372.231 480.286 368.779 473.888 365.504C474.316 365.934 474.744 366.364 475.186 366.808C480.846 374.038 485.356 381.56 489.218 389.872C489.593 390.676 489.969 391.481 490.356 392.31C495.139 402.909 497.203 412.593 495.95 424.183C492.08 433.093 483.84 437.21 475.267 440.89C469.626 442.802 464.189 443.771 458.315 442.438C453.246 439.36 449.901 435.625 446.635 430.703C442.377 430.422 438.256 430.713 433.997 430.947C429.186 430.669 427.054 429.738 423.275 426.791C421.268 424.264 421.268 424.264 419.707 421.575C419.178 420.687 418.649 419.8 418.105 418.885C414.088 411.186 413.997 401.647 416.528 393.422C420.879 384.153 427.372 376.12 433.657 368.112C432.276 368.443 430.894 368.774 429.47 369.115C428.117 369.437 428.117 369.437 426.737 369.765C424.732 370.244 422.727 370.726 420.724 371.213C416.062 372.332 411.457 373.35 406.724 374.132C387.192 377.392 373.286 389.653 359.685 403.319C358.705 404.304 357.725 405.289 356.715 406.304C310.205 455.756 293.318 520.886 279.334 585.43C277.048 595.925 274.476 606.312 271.666 616.677C269.745 623.767 268.003 630.902 266.247 638.035C267.136 637.135 268.025 636.235 268.941 635.307C272.285 631.923 275.634 628.544 278.984 625.166C280.425 623.711 281.864 622.256 283.303 620.799C290.537 613.475 297.745 606.212 305.564 599.511C308.908 596.639 312.1 593.615 315.318 590.603C321.418 584.934 327.717 579.598 334.202 574.374C337.555 571.589 340.704 568.663 343.869 565.664C364.977 546.466 394.301 533.354 423.179 534.608C458.368 538.247 487.423 553.695 510.179 581.373C525.079 599.997 540.463 622.432 546.562 645.859C546.091 649.649 546.091 649.649 545.264 652.379C538.168 651.874 534.257 648.983 529.043 644.473C504.804 624.52 476.969 615.725 446.407 610.85C429.392 608.111 413.395 603.551 397.045 598.186C396.176 597.902 395.306 597.618 394.411 597.325C392.034 596.545 389.661 595.754 387.288 594.962C364.299 588.123 342.033 593.202 321.249 604.157C279.635 628.637 254.052 671.709 235.453 715.01C231.659 723.656 227.518 731.669 220.825 738.441C219.541 738.872 218.256 739.302 216.932 739.745C216.076 738.885 215.219 738.024 214.337 737.137C214.44 727.849 217.989 721.686 222.61 713.829C249.888 665.644 249.888 665.644 257.163 611.955C253.739 602.597 246.208 596.968 237.696 592.396C228.449 588.679 219.097 586.327 209.146 585.876C208.309 585.809 207.473 585.741 206.611 585.672C186.79 584.76 166.903 591.972 148.095 597.433C147.207 597.691 146.32 597.948 145.405 598.214C142.96 598.925 140.517 599.643 138.075 600.36C128.378 603.047 119.328 603.077 109.3 603.072C108.434 603.073 107.569 603.074 106.678 603.075C93.0029 603.073 79.5435 602.223 65.9414 600.816C47.3007 598.901 31.1796 601.503 13.732 608.324C9.42679 609.726 5.98523 609.748 1.50474 609.348C0.404086 606.282 -0.0299341 604.729 1.19044 601.651C16.9865 578.025 39.8506 563.672 65.0948 551.972C67.3808 550.906 67.3808 550.906 69.713 549.818C77.7384 546.221 85.844 543.15 94.2132 540.481C95.0572 540.211 95.9011 539.941 96.7707 539.663C121.15 532.195 149.816 534.864 174.106 541.541C174.988 541.778 175.87 542.015 176.778 542.26C202.599 549.433 226.345 564.997 245.508 583.604C247.995 585.802 250.247 587.16 253.269 588.484C245.982 556.567 227.341 534.378 200.061 516.765C191.656 511.504 183.184 506.356 174.69 501.242C137.105 478.605 103.755 452.105 92.4544 407.444C92.2034 406.401 91.9523 405.357 91.6937 404.282C91.4195 403.159 91.1452 402.036 90.8627 400.879C87.9115 388.48 85.7905 375.961 83.75 363.385C83.3759 361.126 83.0007 358.868 82.6246 356.61C81.8873 352.176 81.1596 347.741 80.4385 343.304C79.7303 338.963 78.9927 334.629 78.2308 330.298C78.049 329.249 77.8672 328.201 77.68 327.122C77.3397 325.165 76.993 323.209 76.6382 321.255C75.57 315.055 75.1201 309.209 75.4768 302.913C76.3334 302.052 77.1899 301.192 78.0723 300.305C82.5576 300.427 84.3197 301.388 87.6534 304.441C91.0867 308.169 94.0822 312.044 96.9709 316.197C97.7938 317.364 97.7938 317.364 98.6333 318.554C102.497 324.075 106.214 329.685 109.904 335.324C116.545 345.468 123.378 354.995 131.28 364.2C131.923 365.018 132.565 365.837 133.227 366.68C136.933 371.346 140.987 374.985 145.637 378.706C163.012 392.721 176.829 408.321 186.815 428.477C187.26 429.374 187.705 430.271 188.164 431.195C193.758 442.647 198.451 454.471 203.211 466.289C210.597 484.576 218.803 502.252 228.612 519.373C229.538 521.001 230.464 522.629 231.39 524.258C232.186 525.658 232.983 527.058 233.803 528.501C231.69 514.954 228.958 502.024 224.886 488.919C219.173 470.478 214.239 451.874 209.551 433.148C203.777 410.134 203.777 410.134 197.466 387.264C197.12 386.053 196.774 384.841 196.418 383.593C193.022 371.449 193.022 371.449 184.326 362.896C183.294 362.245 182.262 361.595 181.198 360.924C180.143 360.284 179.087 359.644 178 358.984C162.425 349.53 152.661 337.37 146.853 319.864C146.61 315.219 146.61 315.219 146.853 310.737C147.71 309.876 148.566 309.015 149.449 308.129C153.728 308.559 155.448 308.941 158.533 312.041C158.606 310.268 158.606 310.268 158.68 308.46C159.924 285.3 159.924 285.3 167.617 276.833C172.442 277.284 174.898 277.705 178.648 280.908C181.794 283.837 181.794 283.837 186.192 283.027C187.343 282.704 188.494 282.382 189.679 282.049C192.651 286.529 192.506 288.55 192.275 293.785C195.687 291.8 198.561 290.077 201.359 287.265C203.874 287.265 203.874 287.265 206.55 288.569C214.105 300.248 214.428 315.503 213.039 328.992C211.476 336.342 209.379 343.19 205.724 349.764C202.213 357.709 204.248 365.274 206.53 373.328C206.804 374.333 207.078 375.339 207.361 376.376C207.957 378.559 208.558 380.742 209.163 382.923C210.828 388.924 212.454 394.935 214.083 400.945C214.597 402.837 214.597 402.837 215.121 404.767C218.533 417.374 221.723 430.034 224.898 442.702C236.631 489.461 249.371 535.924 263.651 581.964C265.181 569.648 265.162 557.346 265.208 544.958C265.223 541.097 265.249 537.237 265.277 533.377C265.356 522.406 265.426 511.435 265.47 500.464C265.816 419.346 270.406 334.103 298.691 257.274C297.481 256.949 296.272 256.625 295.026 256.29C290.578 254.537 289.516 253.613 287.254 249.531C286.737 248.632 286.221 247.733 285.688 246.806C282.996 241.364 282.982 236.959 283.037 230.95C283.048 229.29 283.06 227.631 283.072 225.922C283.095 224.013 283.095 224.013 283.118 222.066C281.685 222.18 281.685 222.18 280.223 222.295C269.778 222.781 269.778 222.781 264.787 218.969C259.858 212.035 260.373 205.628 261.056 197.291C263.863 184.292 272.986 174.088 283.848 166.892C289.51 163.761 295.4 161.63 301.53 159.638C302.393 159.357 303.256 159.076 304.146 158.786C309.814 157.08 314.855 156.606 320.753 156.867C320.753 156.007 320.753 155.146 320.753 154.259C311.075 152.568 301.809 152.179 292.156 154.244C284.061 155.774 276.172 156.042 267.95 156.052C266.554 156.084 265.158 156.116 263.72 156.149C255.249 156.18 248.543 155.505 241.59 150.347C239.009 147.546 239.009 147.546 237.291 144.642C236.66 143.614 236.029 142.585 235.38 141.525C233.803 138.612 233.803 138.612 232.181 134.537C229.092 129.437 224.921 127.091 220.03 123.82C214.918 120.255 212.206 117.383 210.93 111.228C211.861 106.737 213.519 105.029 217.064 102.202C223.081 98.7685 229.483 97.7755 236.236 96.7213C247.763 94.6702 257.367 89.4327 267.545 83.8445C275.643 79.3985 281.952 78.7033 290.996 80.4522C305.191 84.8987 315.215 96.9677 322.018 109.68C324.737 114.924 327.316 120.229 329.837 125.572C329.837 122.355 329.13 119.58 328.418 116.439C320.701 80.8547 319.31 46.8121 338.921 14.7337C342.186 10.8574 342.186 10.8574 345.41 8.21384C350.358 7.80634 350.358 7.80634 354.494 8.21384C355.351 10.7957 356.207 13.3776 357.09 16.0377C357.61 15.4544 358.13 14.8711 358.666 14.2702C366.259 6.15699 375.162 -1.69824 386.938 0.38997Z" fill="#FFF3F3"/>
</svg>
