<svg width="179" height="179" viewBox="0 0 179 179" fill="none" xmlns="http://www.w3.org/2000/svg">
<path d="M19.9882 110.213C19.9333 110.008 20.0244 110.276 19.8734 109.511C19.9724 109.412 19.9823 109.254 20.0868 109.205C22.4075 107.036 25.0902 105.644 28.1112 104.862C30.622 104.212 33.195 104.236 35.753 104.05C37.0739 103.954 38.3771 103.616 39.7328 103.368C39.8299 103.204 39.8825 103.059 39.9352 102.915C39.9613 102.988 39.9874 103.061 40.0135 103.133C40.2536 103.104 40.5244 103.138 40.729 103.037C43.0042 101.915 45.2838 100.801 47.5326 99.6282C49.5275 98.5877 51.5371 97.6018 53.8425 97.575C54.5808 97.5664 55.0591 97.2612 55.5712 96.6723C52.931 96.2974 50.4925 96.5344 48.2461 97.8995C47.7462 98.2033 47.3134 98.6154 46.8235 98.9378C45.4317 99.8536 44.0664 100.822 42.6111 101.625C41.7339 102.109 40.7082 102.325 39.7233 102.605C39.4677 101.454 39.837 100.511 40.4411 99.6275C41.585 97.9544 43.1404 96.6981 44.688 95.4341C47.4575 93.1722 48.0393 91.538 51.5444 92.3089C52.3886 92.4945 53.2628 92.6107 54.1258 92.6276C55.2192 92.6492 56.0789 92.1919 56.4806 90.929C55.6234 90.7321 54.7792 90.5381 53.8905 90.334C53.6754 90.1979 53.4995 90.1334 53.1781 90.0598C51.7829 89.7402 52.8265 90.0518 51.4093 89.8773C49.1504 89.5992 47.0246 90.0818 45.0171 91.1982C42.9409 92.3527 40.8433 93.4789 38.6964 94.4931C36.4585 95.5504 34.1525 96.479 31.6416 96.6755C27.7321 96.9814 24.0239 96.0727 20.3911 94.7477C20.1914 94.6749 20.01 94.5517 19.8201 94.452C19.8169 94.3777 19.8138 94.3035 19.8106 94.2292C21.0639 93.7047 22.2937 93.112 23.5757 92.6711C25.6809 91.9472 27.8549 92.1624 30.0142 92.4007C32.7334 92.7008 35.1392 92.0298 37.2024 90.1853C38.1663 89.3236 39.2828 88.6734 40.5807 88.5289C42.7044 88.2925 44.5279 87.378 46.321 86.2996C47.795 85.4131 49.3317 84.6032 51.11 84.5244C51.8642 84.4909 52.623 84.5604 53.47 84.5858C51.9086 83.2914 50.248 82.4148 48.2841 82.2172C47.0204 82.0901 45.7532 81.9927 44.4859 81.9071C42.5542 81.7766 40.8664 81.1027 39.4891 79.7188C37.8078 78.0295 35.8085 76.8805 33.5475 76.1517C32.779 75.9039 32.0368 75.5744 31.1591 75.2344C31.4957 75.0062 31.6968 74.8474 31.9176 74.7238C33.2116 73.9991 34.6249 73.8132 36.0798 73.8114C39.2669 73.8075 42.1249 74.8729 44.8191 76.4819C45.8612 77.1043 46.9655 77.642 48.1903 77.6454C50.1357 77.6508 52.0814 77.5312 54.1064 77.4618C53.9734 77.2938 53.9151 77.1943 53.8335 77.1208C50.0915 73.7523 46.1385 70.797 40.8344 70.4871C40.5062 70.4679 40.1791 70.4176 39.8532 70.3706C36.4587 69.8816 33.5053 68.6696 31.605 65.5717C30.7374 64.1574 29.3797 63.2844 27.8236 62.7486C26.2207 62.1968 24.6003 61.6956 22.997 61.145C22.4056 60.9419 21.8408 60.6611 21.0845 60.3394C21.5272 60.1467 21.7689 59.9822 22.0311 59.9375C23.3719 59.7084 24.7133 59.3702 26.063 59.3251C32.1982 59.1205 33.2502 59.5554 37.8268 63.6492C38.6473 64.3832 39.5578 65.0271 40.4763 65.638C41.3785 66.2381 42.3814 66.3311 43.4597 66.098C44.5147 65.8699 45.5961 65.7021 46.673 65.6481C51.1214 65.4248 55.0072 66.6291 57.9131 70.2284C58.1753 70.5531 58.4935 70.8757 58.8559 71.0654C59.2747 71.2846 59.7712 71.3555 60.1717 71.4727C59.3331 69.5609 58.5238 67.7649 57.7561 65.9513C57.0383 64.2558 56.1205 62.6913 54.3079 62.0422C52.0086 61.2189 50.0464 59.8363 48.0163 58.5588C45.8193 57.1763 43.9764 55.4003 42.4497 53.3061C42.2715 53.0616 42.1376 52.5761 42.2622 52.3769C42.3929 52.1677 42.872 52.0644 43.1768 52.1005C43.7313 52.1661 44.2751 52.3509 44.8135 52.5178C48.4344 53.6403 51.9428 54.9739 54.7939 57.6187C55.628 58.3925 56.6962 58.7192 57.8205 58.8607C59.6178 59.087 61.3202 59.5905 62.8412 60.6163C63.0397 60.7502 63.2755 60.8289 63.494 60.9332C63.5634 60.8665 63.6327 60.7998 63.702 60.7332C63.3279 60.1949 63.0131 59.6005 62.5677 59.1296C61.5417 58.0447 60.9588 56.7756 60.7031 55.3214C60.5727 54.58 60.4217 53.8345 60.1843 53.1227C60.0419 52.6955 59.7788 52.2664 59.4609 51.9464C56.8193 49.2879 55.2471 46.0995 54.922 42.3815C54.619 38.9166 53.7324 35.6731 51.9741 32.6648C51.2662 31.4536 50.6326 30.199 49.9234 28.8867C51.8215 29.2351 53.2159 30.232 54.403 31.5601C56.4333 33.8317 57.3409 36.5804 57.6581 39.5412C58.0557 43.2526 59.4471 46.3726 62.5755 48.6124C64.4381 49.9459 65.5048 51.884 65.9627 54.0784C66.2613 55.5097 67.3505 56.0064 68.375 56.8313C68.1733 56.0785 68.0179 55.4667 67.8452 54.8598C67.1727 52.4969 65.9744 50.4541 64.1569 48.7826C63.3776 48.0659 62.6276 47.3174 61.8562 46.592C60.9264 45.7177 60.5161 44.6248 60.4738 43.3728C60.4571 42.8794 60.4072 42.3823 60.4453 41.8925C60.619 39.6597 60.5357 37.4688 59.5524 35.3592C60.15 35.9782 60.7482 36.6048 61.0691 37.3506C61.5976 38.579 61.9768 39.8755 62.3641 41.1598C62.8612 42.8084 63.5984 44.3345 64.762 45.5967C66.2753 47.2382 67.8707 48.8041 69.4358 50.3976C70.2566 51.2334 71.2394 51.8955 71.4833 53.2133C71.7257 54.5233 72.2336 55.7821 72.571 57.0775C72.7842 57.896 72.7976 58.1883 73.0102 59.0071C73.16 59.5661 73.4385 60.0352 74.5999 60.5441C73.1568 58.3869 73.7002 57.4193 74.0305 55.1165C74.2091 53.8712 73.8377 52.6891 73.2369 51.5877C72.0314 49.3781 70.8126 47.1756 69.6279 44.9549C69.0634 43.8967 68.5379 42.815 68.0569 41.7168C67.9554 41.4853 68.0221 41.0334 68.192 40.8607C68.5299 40.5173 68.746 40.9194 68.9701 41.1478C69.6114 41.8015 70.1973 42.5307 70.9196 43.0796C72.5688 44.3328 74.2853 45.4975 75.9767 46.695C76.2861 46.9139 76.6064 47.1174 76.9217 47.3281C76.9753 47.3026 77.0288 47.2772 77.0824 47.2518C76.0165 44.6471 76.698 42.2238 77.5994 39.7603C77.9275 38.8638 77.821 37.7723 77.7576 36.7796C77.7026 35.9178 77.3654 35.077 77.2684 34.2139C77.1617 33.2641 77.1396 32.2971 77.1865 31.3428C77.1989 31.0898 77.5697 30.7081 77.8313 30.6543C78.0998 30.5991 78.4607 30.8358 78.733 31.0171C78.89 31.1216 78.9986 31.3574 79.0488 31.5544C79.4305 33.0561 79.971 34.545 80.1234 36.0717C80.437 39.2116 81.2202 42.1465 83.1504 44.6842C84.6926 46.7117 86.0515 48.8101 86.3012 51.4589C87.3183 50.9018 87.4588 50.7176 87.1926 49.7653C86.4403 47.0737 86.7049 44.5165 87.9618 42.0185C88.6754 40.6001 88.8719 39.0619 88.6488 37.4766C88.4978 36.4039 88.383 35.3262 88.2389 34.2524C87.7614 30.6946 87.9888 27.2675 89.8534 24.0632C91.5347 21.1738 91.6283 18.0672 90.8476 14.8888C90.7882 14.6472 90.7824 14.6454 90.8851 14.3249C90.8931 14.3 90.8562 14.1451 91.1901 14.0968C91.2585 14.0785 91.5497 14.1701 91.5571 14.3037C91.7872 14.7734 92.0149 15.1856 92.2077 15.6135C93.2988 18.0357 94.3254 20.4888 95.4848 22.8777C96.4468 24.8599 96.8285 26.8924 96.3985 29.0431C96.113 30.4709 95.7334 31.8812 95.3587 33.2895C94.3573 37.0526 94.3716 40.7242 96.1737 44.2869C97.2631 46.4407 97.5365 48.715 96.9847 51.0852C96.7504 52.0917 96.5697 53.1125 96.4113 54.134C96.347 54.5484 96.4071 54.982 96.376 55.3921C96.3485 55.4151 96.3555 55.453 96.3625 55.4908C96.3733 55.4582 96.3841 55.4256 96.4427 55.3816C98.1756 53.3994 99.2703 51.1685 99.3829 48.542C99.4749 46.3945 100.339 44.6003 101.687 42.9751C103.491 40.8 105.297 38.6243 107.019 36.3852C107.695 35.5062 108.196 34.4787 108.683 33.4734C108.969 32.8831 109.068 32.7807 109.635 33.1626C110.811 33.9544 110.966 35.2869 109.869 36.5285C107.993 38.6505 106.822 41.1707 105.67 43.6983C105.362 44.374 105.318 45.1956 105.273 45.9574C105.238 46.5354 105.338 47.1382 105.475 47.7067C105.965 49.7501 105.43 51.4749 103.953 52.936C102.933 53.9452 103.305 53.2247 102.333 54.2784C101.305 55.3927 100.83 55.6436 100.76 57.0742C101.78 56.7462 101.967 56.5922 102.127 56.3153C102.931 54.9219 102.395 55.8508 103.013 55.0885C103.883 54.4469 104.775 53.8339 105.639 53.184C106.601 52.46 107.147 51.5012 107.077 50.2718C106.876 46.7557 107.956 43.485 109.019 40.2189C109.277 39.425 109.719 38.675 110.17 37.9636C110.689 37.1433 111.359 36.8443 111.905 37.0393C112.419 37.2231 112.794 37.948 112.647 38.8715C112.478 39.9329 112.247 41.005 111.873 42.0089C111.082 44.127 110.899 46.2615 111.37 48.463C111.771 50.3401 111.385 52.0673 110.342 53.6542C109.928 54.2836 109.443 54.8659 109.033 55.4974C108.838 55.7978 108.743 56.1631 108.566 56.5856C109.787 56.5231 110.692 56.1474 111.491 55.5328C114.455 53.2534 117.014 50.6758 117.844 46.8306C117.932 46.422 118.122 46.0286 118.307 45.6488C118.909 44.4148 119.81 43.4415 121.131 43.0356C122.109 42.7351 123.15 42.5512 124.172 42.4956C127.033 42.3401 129.545 41.4912 131.33 39.122C133.046 36.8447 134.49 34.4287 134.817 31.5079C134.832 31.375 134.89 31.2469 134.928 31.1174C135.578 31.1191 135.614 31.5911 135.622 32.0043C135.653 33.6032 135.728 35.2071 135.64 36.8012C135.479 39.7387 134.327 42.2688 132.232 44.3516C130.785 45.7912 129.138 46.9609 127.299 47.8383C126.109 48.4055 124.876 48.8783 123.673 49.4178C123.259 49.6035 122.829 49.758 122.77 50.3669C122.58 52.3314 122.203 54.2859 122.137 56.2523C122.029 59.4403 120.57 61.6417 117.749 63.0155C117.559 63.108 117.368 63.2059 117.196 63.3271C116.045 64.1367 114.892 64.9433 113.759 65.7764C113.542 65.9353 113.409 66.2075 113.138 66.5565C113.5 66.4772 113.662 66.4529 113.818 66.4057C116.297 65.655 118.755 64.8284 121.257 64.1652C125.086 63.1502 128.199 61.1082 130.672 58.0346C131.764 56.6771 132.88 55.3368 134.025 54.0244C135.722 52.0814 137.833 50.8115 140.386 50.356C141.078 50.2326 141.798 50.2688 142.505 50.2318C142.539 50.3167 142.572 50.4016 142.606 50.4865C142.264 50.8884 141.95 51.3192 141.574 51.6875C139.307 53.9133 137.094 56.2005 134.731 58.3198C132.307 60.493 131.108 63.4365 129.298 66.2526C132.627 66.0332 135.791 65.8246 138.955 65.616C138.994 65.672 139.033 65.7279 139.071 65.7838C138.683 66.1297 138.331 66.5328 137.899 66.8114C136.269 67.8625 134.431 68.4343 132.558 68.7884C128.798 69.4992 126.169 71.9815 123.403 74.3857C123.594 74.4368 123.745 74.4938 123.9 74.5158C125.879 74.7956 127.861 75.052 129.836 75.3516C131.699 75.6342 133.361 75.2309 134.908 74.1379C135.825 73.4893 136.814 72.9188 137.829 72.4349C140.292 71.2606 142.809 71.1745 145.362 72.2067C146.723 72.7571 148.143 73.1688 149.626 73.0168C152.881 72.6833 155.979 71.6883 159.096 70.6942C159.212 70.7307 159.299 70.7343 159.385 70.7379C159.413 70.8404 159.44 70.9429 159.453 71.1441C159.412 71.3833 159.394 71.315 159.412 71.3833C159.364 71.4761 159.245 71.581 159.075 71.7665C158.958 71.8775 159.007 71.8258 158.935 71.9327C158.844 72.069 158.738 72.1981 158.625 72.317C155.966 75.1036 152.75 76.8852 148.928 77.3891C146.953 77.6496 144.938 77.6722 142.941 77.68C141.725 77.6847 140.834 78.0435 140.008 78.9753C138.432 80.7519 136.791 82.4835 135.052 84.0986C132.316 86.6394 129.114 88.1414 125.272 87.9577C124.817 87.936 124.36 87.9666 123.904 87.973C125.333 88.5687 125.774 88.277 126.747 89.3651C126.903 89.5398 127.088 89.6889 127.259 89.8508C127.667 90.2376 128.113 90.3379 128.682 90.2023C130.218 89.8363 131.771 89.5416 133.312 89.1969C135.401 88.7298 137.544 88.4724 139.504 87.5145C141.407 86.5838 143.317 85.6639 145.243 84.7807C147.838 83.5904 151.063 84.3451 153.938 84.7939C154.333 84.8556 154.719 84.978 155.109 85.0723C155.106 85.144 155.104 85.2156 155.102 85.2873C154.287 85.5054 153.48 85.7549 152.658 85.9363C148.81 86.7854 145.123 87.9704 141.94 90.4407C140.091 91.8756 137.897 92.5075 135.565 92.7032C134.585 92.7855 133.538 92.8119 132.657 93.185C130.766 93.9864 128.963 94.9964 127.088 95.939C128.193 96.9909 129.09 96.6988 130.555 96.9769C133.787 97.5906 136.271 98.5976 139.515 99.1474C140.405 99.2981 144.802 99.1088 144.82 99.8977C144.832 100.416 141.844 101.474 141.385 101.491C140.638 101.52 139.872 101.55 139.142 101.419C137.639 101.15 136.156 100.767 134.66 100.448C134.268 100.365 133.861 100.345 133.461 100.297C133.446 100.356 133.43 100.416 133.414 100.476C135.215 101.702 136.808 103.22 139.201 103.452C141.91 103.714 144.397 104.651 146.162 106.902C147.295 108.348 148.76 109.312 150.385 110.13C152.573 111.233 154.698 112.462 156.842 113.65C157.033 113.755 157.171 113.957 157.333 114.113C157.157 114.289 157.008 114.519 156.797 114.627C156.423 114.82 156.021 114.979 155.613 115.083C150.657 116.34 146.043 115.626 141.815 112.675C140.87 112.016 139.913 111.364 138.911 110.798C137.911 110.233 136.827 110.125 135.7 110.484C134.69 110.806 133.66 111.065 132.639 111.355C129.668 112.202 126.695 112.22 123.716 111.386C122.094 110.933 120.744 110.072 119.769 108.692C118.879 107.432 117.49 107.142 116.069 106.595C116.414 107.425 116.787 108.093 116.97 108.809C117.444 110.671 118.761 111.637 120.454 112.175C121.23 112.421 122.066 112.536 122.882 112.584C126.3 112.787 129.412 113.84 132.301 115.679C135.459 117.688 136.599 120.596 136.318 124.189C136.277 124.706 136.084 125.212 135.915 125.917C130.439 123.015 125.404 119.605 119.573 117.734C120.291 119.768 120.971 121.776 121.711 123.763C122.235 125.17 122.671 126.65 123.448 127.912C124.551 129.704 125.296 131.56 125.465 133.645C125.716 136.732 126.761 139.521 128.618 141.992C129.762 143.513 130.965 144.99 132.143 146.486C132.435 146.857 132.73 147.225 133.024 147.595C132.98 147.649 132.937 147.703 132.893 147.757C131.833 147.312 130.743 146.927 129.718 146.412C127.033 145.065 124.995 143.064 123.922 140.217C123.333 138.653 122.859 137.044 122.37 135.444C121.865 133.794 120.911 132.754 119.158 132.239C116.234 131.378 113.526 129.961 110.923 128.376C109.253 127.359 108.188 125.877 107.806 123.943C107.587 122.834 107.805 123.866 107.611 122.752C107.337 121.179 106.861 119.682 105.915 118.376C105.714 118.099 105.373 117.923 105.096 117.7C105.036 117.752 104.977 117.804 104.917 117.856C105.606 123.24 102.334 124.038 107.434 127.43C108.558 128.178 109.344 129.208 110.027 130.362C110.921 131.875 111.826 133.395 112.874 134.801C114.086 136.427 114.899 138.18 115.26 140.166C115.593 141.998 115.968 143.823 116.315 145.652C116.368 145.933 116.373 146.223 116.413 146.645C115.569 146.173 115.243 145.485 114.942 144.815C113.949 142.607 112.849 140.455 110.871 138.965C108.488 137.17 106.737 134.892 105.247 132.343C104.682 131.377 103.833 130.577 103.034 129.605C102.412 131.015 102.245 132.261 102.242 133.545C102.238 134.908 102.289 136.28 102.148 137.63C101.963 139.406 101.621 141.167 101.331 142.931C101.274 143.276 101.188 143.631 101.037 143.942C100.804 144.422 100.465 144.432 100.226 143.95C100.021 143.535 99.865 143.074 99.7954 142.618C99.4445 140.314 99.1486 138.002 98.7911 135.7C98.6468 134.77 98.4083 133.853 98.1888 132.936C97.7094 130.933 98.0214 128.961 98.4 126.945C98.3814 126.82 98.3541 126.74 98.2832 126.531C98.2536 126.749 98.2421 126.834 98.1962 126.95C97.8663 127.972 97.4477 128.943 97.2997 129.954C96.9328 132.459 96.3938 134.899 95.3993 137.24C94.8554 138.521 94.7549 139.894 95.0314 141.266C95.3339 142.768 95.7533 144.249 95.9911 145.76C96.5795 149.499 96.1543 153.084 93.7827 156.17C92.0949 158.366 92.1938 160.441 92.2705 162.976C92.2754 163.139 92.3071 163.113 92.2937 163.336C92.262 163.491 92.1437 163.596 92.1437 163.596C92.1437 163.596 92.1719 163.735 91.682 163.823C91.5471 163.748 91.4881 163.695 91.421 163.583C90.2438 160.908 89.7464 158.17 90.0535 155.323C90.4896 151.278 90.9519 147.236 91.4779 143.202C91.8182 140.592 91.9573 138.008 91.3727 135.414C91.0358 133.918 90.7736 132.395 91.0851 130.862C91.5397 128.624 90.2572 127.021 89.1698 125.183C88.3509 126.806 87.6531 128.326 87.9901 130.032C88.3227 131.714 88.7894 133.374 89.2606 135.025C89.6999 136.565 90.2772 138.066 90.6909 139.611C91.0129 140.814 90.8129 142.003 90.1305 143.071C90.0286 143.231 89.7807 143.446 89.6638 143.413C89.4847 143.362 89.2561 143.131 89.2327 142.952C89.1573 142.375 89.1179 141.784 89.1508 141.204C89.2824 138.88 87.8303 137.389 86.7638 135.258C85.5895 132.91 84.1606 131.943 84.7353 129.441C84.9941 128.313 84.8249 127.523 84.7862 126.357C84.7389 124.937 85.1221 125.092 84.7582 123.734C84.4084 123.202 84.8968 121.782 84.3713 121.92C83.9847 123.192 84.102 122.547 83.665 123.68C83.3021 124.621 83.3049 124.401 82.8435 125.303C81.7209 127.498 81.7298 129.642 82.695 131.958C84.8039 137.018 84.269 142.026 81.7439 146.797C80.8708 148.447 80.2424 150.077 80.24 151.941C80.2391 152.646 80.2365 153.354 80.1865 154.057C80.1433 154.665 80.0622 155.275 79.935 155.871C79.8873 156.094 79.6618 156.279 79.5174 156.481C79.3303 156.324 79.0446 156.202 78.9738 156.003C78.6992 155.233 78.3824 154.452 78.2801 153.65C77.7856 149.773 78.4631 146.061 79.9622 142.47C80.4055 141.409 80.821 140.322 81.1031 139.21C81.6682 136.981 81.5006 134.805 80.242 132.813C79.0041 130.854 77.7437 128.913 77.7937 126.434C77.6336 126.768 77.5447 127.096 77.4817 127.429C76.9857 130.051 75.8471 132.341 73.9129 134.194C71.9761 136.051 70.0307 137.9 68.037 139.694C67.2734 140.381 66.3757 140.923 65.5175 141.5C65.2428 141.684 64.8985 141.765 64.4277 141.958C64.5314 141.256 64.5431 140.71 64.6972 140.207C66.0041 135.943 67.4491 131.737 69.8887 127.948C70.4234 127.118 70.867 126.228 71.3308 125.353C71.4355 125.156 71.449 124.91 71.4718 124.818C70.3807 125.43 69.3197 126.135 68.1723 126.647C65.2448 127.952 62.8886 129.852 61.2622 132.658C60.4956 133.981 59.5671 135.21 58.7002 136.473C57.4745 138.259 55.9202 139.706 53.9186 140.538C51.7774 141.428 50.3917 142.993 49.4292 145.012C48.8919 146.139 48.4133 147.294 47.893 148.429C47.7638 148.711 47.5754 148.966 47.4142 149.233C47.3544 149.221 47.2946 149.208 47.2348 149.195C47.1383 148.601 47.029 148.01 46.947 147.414C46.0222 140.692 49.8435 135.856 54.3434 133.546C55.0972 133.159 55.8631 132.795 56.6218 132.418C58.2721 131.596 59.2176 130.334 59.2943 128.425C59.3461 127.136 59.5203 125.848 59.7053 124.569C60.415 119.66 62.2917 115.476 66.9477 113.036C67.2569 112.874 67.51 112.605 67.7891 112.386C66.4831 112.585 65.2599 112.914 64.0362 113.241C60.7205 114.126 58.0977 116.01 56.0504 118.743C54.9486 120.214 53.8241 121.668 52.6838 123.109C50.8984 125.366 48.5529 126.57 45.6778 126.663C45.0614 126.683 44.4034 126.562 43.8255 126.344C43.0966 126.069 42.9334 125.344 43.4002 124.718C43.6924 124.326 44.0636 123.988 44.4276 123.657C47.088 121.234 49.6898 118.749 52.651 116.673C54.1191 115.644 55.0639 114.154 55.8439 112.331C50.0626 113.987 44.4528 115.594 38.7144 117.238C38.8483 116.963 38.8965 116.832 38.971 116.717C41.018 113.564 43.5932 110.915 47.1638 109.64C50.224 108.547 53.1322 107.291 55.6484 105.152C54.0379 105.091 52.4058 104.989 50.7737 104.988C50.2188 104.988 49.6068 105.133 49.1184 105.394C46.5695 106.758 44.0958 108.268 41.5117 109.558C38.6928 110.965 35.7461 111.598 32.6546 110.289C28.5454 108.549 24.5132 109.814 20.4236 110.612C20.3872 110.361 20.4904 110.922 20.4236 110.612C20.4261 110.629 20.0753 110.183 19.9882 110.213ZM117.008 97.8436C119.172 91.1363 118.903 84.5212 116.105 78.0591C109.865 63.6469 92.804 57.1979 78.5385 63.8147C59.9468 72.4383 56.42 97.2612 72.0642 110.428C80.7212 117.714 90.6189 119.199 101.115 114.973C108.968 111.811 114.139 105.899 117.008 97.8436Z" fill="#4E3F0E"/>
</svg>
