<svg width="856" height="918" viewBox="0 0 856 918" fill="none" xmlns="http://www.w3.org/2000/svg">
<path d="M1.45202 589.272C1.11575 588.017 1.67367 589.656 0.749445 584.977C1.3555 584.371 1.41604 583.403 2.0559 583.101C16.2647 569.818 32.6896 561.295 51.1863 556.507C66.5587 552.528 82.3126 552.68 97.9741 551.54C106.061 550.951 114.041 548.884 122.341 547.361C122.935 546.356 123.258 545.474 123.58 544.592C123.74 545.037 123.9 545.481 124.06 545.925C125.53 545.748 127.188 545.952 128.441 545.335C142.371 538.469 156.328 531.647 170.096 524.466C182.31 518.095 194.614 512.059 208.729 511.895C213.25 511.842 216.178 509.973 219.314 506.368C203.149 504.072 188.218 505.524 174.465 513.882C171.404 515.741 168.754 518.265 165.755 520.239C157.233 525.846 148.874 531.773 139.964 536.691C134.593 539.656 128.313 540.975 122.283 542.691C120.718 535.643 122.979 529.871 126.677 524.461C133.681 514.218 143.204 506.526 152.68 498.787C169.636 484.938 173.199 474.932 194.659 479.652C199.828 480.789 205.18 481.5 210.464 481.604C217.158 481.736 222.422 478.936 224.882 471.204C219.633 469.998 214.464 468.811 209.024 467.561C207.706 466.727 206.629 466.333 204.662 465.882C196.12 463.925 202.509 465.833 193.832 464.765C180.002 463.062 166.986 466.017 154.695 472.852C141.983 479.92 129.14 486.816 115.995 493.026C102.293 499.499 88.1749 505.184 72.8014 506.387C48.8654 508.261 26.1614 502.697 3.91886 494.584C2.69603 494.138 1.58558 493.384 0.422838 492.774C0.403424 492.319 0.384089 491.864 0.364676 491.41C8.03804 488.198 15.5678 484.569 23.4172 481.87C36.3066 477.438 49.6167 478.755 62.8373 480.214C79.4864 482.052 94.2162 477.944 106.848 466.65C112.75 461.375 119.586 457.394 127.532 456.509C140.535 455.062 151.7 449.462 162.678 442.86C171.703 437.432 181.112 432.473 191.999 431.99C196.617 431.786 201.263 432.211 206.449 432.367C196.889 424.442 186.721 419.074 174.698 417.865C166.96 417.086 159.202 416.49 151.442 415.966C139.615 415.167 129.282 411.041 120.849 402.568C110.555 392.225 98.3137 385.19 84.4707 380.728C79.7653 379.211 75.2213 377.193 69.8472 375.111C71.9081 373.714 73.1396 372.742 74.4914 371.985C82.4141 367.548 91.0673 366.41 99.975 366.399C119.488 366.375 136.987 372.898 153.482 382.75C159.863 386.56 166.624 389.852 174.123 389.873C186.034 389.907 197.947 389.174 210.345 388.749C209.531 387.721 209.174 387.112 208.674 386.661C185.764 366.037 161.56 347.943 129.086 346.046C127.076 345.928 125.074 345.62 123.078 345.332C102.295 342.338 84.2125 334.918 72.5773 315.95C67.2657 307.291 58.953 301.946 49.4253 298.666C39.6113 295.287 29.6905 292.219 19.8739 288.848C16.2527 287.604 12.7951 285.884 8.16408 283.915C10.8748 282.735 12.3548 281.728 13.9598 281.454C22.1691 280.051 30.3821 277.981 38.6459 277.705C76.2091 276.452 82.6505 279.115 110.671 304.18C115.695 308.674 121.269 312.616 126.893 316.356C132.417 320.03 138.558 320.6 145.159 319.173C151.619 317.776 158.24 316.749 164.833 316.418C192.069 315.051 215.86 322.424 233.652 344.461C235.258 346.45 237.206 348.425 239.424 349.586C241.989 350.929 245.029 351.363 247.481 352.08C242.347 340.375 237.391 329.378 232.691 318.274C228.296 307.894 222.677 298.315 211.579 294.341C197.501 289.3 185.487 280.835 173.057 273.013C159.606 264.548 148.323 253.675 138.976 240.852C137.884 239.356 137.064 236.383 137.827 235.163C138.628 233.883 141.561 233.25 143.427 233.471C146.822 233.873 150.152 235.004 153.448 236.026C175.618 242.899 197.098 251.064 214.554 267.257C219.662 271.995 226.201 273.995 233.085 274.862C244.089 276.247 254.513 279.33 263.825 285.61C265.041 286.43 266.484 286.912 267.822 287.55C268.247 287.142 268.671 286.734 269.095 286.326C266.805 283.03 264.877 279.391 262.151 276.508C255.869 269.866 252.3 262.095 250.734 253.191C249.936 248.652 249.011 244.088 247.558 239.73C246.686 237.114 245.075 234.487 243.129 232.528C226.955 216.251 217.329 196.729 215.339 173.965C213.484 152.751 208.055 132.892 197.29 114.473C192.955 107.058 189.076 99.3765 184.734 91.342C196.355 93.4746 204.893 99.5784 212.161 107.71C224.592 121.618 230.149 138.447 232.091 156.575C234.525 179.299 243.044 198.402 262.198 212.115C273.602 220.279 280.133 232.146 282.937 245.581C284.765 254.344 291.434 257.386 297.706 262.436C296.471 257.827 295.52 254.081 294.463 250.366C290.345 235.898 283.009 223.391 271.881 213.157C267.109 208.769 262.517 204.186 257.794 199.744C252.101 194.392 249.589 187.7 249.33 180.035C249.228 177.014 248.923 173.97 249.156 170.972C250.219 157.301 249.709 143.887 243.689 130.97C247.348 134.761 251.01 138.597 252.975 143.163C256.211 150.684 258.533 158.622 260.904 166.486C263.948 176.579 268.461 185.923 275.585 193.651C284.851 203.701 294.619 213.289 304.201 223.045C309.227 228.162 315.244 232.216 316.737 240.284C318.222 248.305 321.331 256.012 323.397 263.943C324.702 268.955 324.785 270.745 326.086 275.758C327.003 279.18 328.708 282.053 335.819 285.168C326.984 271.961 330.311 266.036 332.333 251.937C333.426 244.313 331.153 237.075 327.474 230.331C320.093 216.803 312.631 203.318 305.378 189.721C301.921 183.242 298.704 176.62 295.759 169.896C295.138 168.478 295.546 165.711 296.586 164.654C298.655 162.551 299.978 165.013 301.35 166.412C305.277 170.414 308.864 174.879 313.286 178.239C323.383 185.912 333.893 193.044 344.249 200.375C346.143 201.716 348.105 202.962 350.035 204.251C350.363 204.096 350.691 203.94 351.019 203.784C344.493 187.837 348.665 173 354.184 157.917C356.193 152.428 355.541 145.745 355.153 139.667C354.816 134.39 352.751 129.243 352.158 123.958C351.504 118.143 351.369 112.223 351.656 106.38C351.732 104.831 354.003 102.493 355.604 102.164C357.248 101.826 359.458 103.276 361.125 104.386C362.086 105.025 362.751 106.469 363.058 107.675C365.396 116.869 368.704 125.985 369.638 135.333C371.558 154.557 376.353 172.526 388.171 188.064C397.613 200.478 405.933 213.325 407.462 229.543C413.69 226.132 414.55 225.004 412.92 219.174C408.314 202.694 409.934 187.037 417.629 171.743C421.999 163.058 423.201 153.641 421.835 143.935C420.911 137.367 420.208 130.768 419.326 124.194C416.402 102.411 417.795 81.4281 429.211 61.8091C439.505 44.1183 440.078 25.0979 435.298 5.63793C434.935 4.15866 434.899 4.14737 435.528 2.18536C435.577 2.03266 435.351 1.08455 437.395 0.78839C437.813 0.676456 439.597 1.23758 439.642 2.05544C441.051 4.9312 442.445 7.45503 443.625 10.0751C450.306 24.9048 456.591 39.9247 463.69 54.5507C469.58 66.6873 471.917 79.131 469.284 92.2993C467.536 101.041 465.212 109.676 462.918 118.298C456.787 141.339 456.874 163.818 467.907 185.631C474.578 198.819 476.252 212.743 472.873 227.255C471.439 233.418 470.332 239.667 469.362 245.922C468.969 248.459 469.337 251.113 469.146 253.624C468.978 253.765 469.021 253.997 469.064 254.229C469.13 254.029 469.196 253.829 469.555 253.56C480.164 241.424 486.867 227.765 487.556 211.684C488.12 198.535 493.408 187.55 501.662 177.6C512.707 164.283 523.765 150.962 534.311 137.252C538.45 131.871 541.517 125.579 544.499 119.424C546.25 115.81 546.857 115.183 550.328 117.521C557.527 122.369 558.477 130.528 551.757 138.13C540.274 151.122 533.101 166.552 526.047 182.027C524.161 186.165 523.895 191.195 523.617 195.859C523.407 199.398 524.017 203.089 524.854 206.57C527.859 219.081 524.58 229.641 515.539 238.587C509.294 244.766 511.568 240.354 505.618 246.806C499.327 253.628 496.414 255.164 495.986 263.923C502.234 261.915 503.378 260.972 504.356 259.277C509.282 250.746 505.998 256.433 509.78 251.766C515.109 247.838 520.569 244.084 525.859 240.105C531.753 235.673 535.096 229.802 534.666 222.275C533.436 200.747 540.046 180.722 546.553 160.725C548.135 155.864 550.843 151.272 553.601 146.916C556.782 141.894 560.883 140.063 564.226 141.257C567.374 142.383 569.67 146.821 568.769 152.475C567.734 158.974 566.32 165.538 564.026 171.684C559.188 184.652 558.066 197.721 560.948 211.2C563.405 222.693 561.042 233.268 554.656 242.984C552.123 246.837 549.151 250.403 546.64 254.269C545.446 256.108 544.863 258.345 543.782 260.932C551.257 260.549 556.796 258.249 561.69 254.486C579.839 240.53 595.503 224.748 600.585 201.206C601.125 198.704 602.287 196.295 603.421 193.97C607.105 186.414 612.624 180.456 620.713 177.97C626.702 176.13 633.071 175.004 639.33 174.664C656.848 173.712 672.229 168.515 683.158 154.008C693.663 140.066 702.503 125.273 704.507 107.39C704.598 106.576 704.954 105.792 705.184 105C709.167 105.01 709.389 107.9 709.437 110.429C709.623 120.219 710.082 130.039 709.547 139.799C708.562 157.785 701.505 173.275 688.682 186.028C679.819 194.842 669.737 202.003 658.474 207.375C651.193 210.848 643.639 213.743 636.275 217.046C633.74 218.183 631.107 219.129 630.747 222.857C629.584 234.885 627.277 246.852 626.87 258.891C626.21 278.41 617.28 291.889 600.007 300.3C598.843 300.866 597.675 301.465 596.62 302.207C589.574 307.164 582.514 312.103 575.573 317.204C574.25 318.176 573.436 319.843 571.772 321.98C573.989 321.494 574.984 321.346 575.937 321.057C591.113 316.46 606.165 311.399 621.483 307.339C644.924 301.124 663.989 288.622 679.129 269.803C685.815 261.492 692.644 253.286 699.659 245.251C710.045 233.354 722.971 225.579 738.602 222.79C742.838 222.035 747.248 222.257 751.578 222.03C751.784 222.55 751.989 223.069 752.194 223.589C750.099 226.05 748.177 228.688 745.88 230.943C731.999 244.57 718.449 258.574 703.979 271.55C689.141 284.856 681.799 302.877 670.713 320.119C691.096 318.776 710.468 317.499 729.84 316.222C730.078 316.564 730.316 316.907 730.554 317.249C728.175 319.367 726.02 321.835 723.375 323.541C713.397 329.976 702.142 333.477 690.676 335.645C667.654 339.997 651.559 355.195 634.62 369.915C635.794 370.228 636.716 370.577 637.668 370.712C649.781 372.425 661.915 373.995 674.01 375.829C685.418 377.559 695.594 375.09 705.062 368.398C710.68 364.427 716.733 360.934 722.947 357.971C738.025 350.782 753.438 350.254 769.068 356.574C777.402 359.944 786.095 362.464 795.174 361.534C815.103 359.492 834.076 353.4 853.159 347.313C853.871 347.537 854.4 347.559 854.93 347.581C855.098 348.209 855.266 348.836 855.343 350.068C855.092 351.533 854.98 351.115 855.092 351.533C854.796 352.101 854.071 352.743 853.03 353.879C852.316 354.559 852.614 354.242 852.174 354.896C851.614 355.731 850.967 356.521 850.272 357.249C833.993 374.311 814.301 385.219 790.905 388.304C778.811 389.899 766.476 390.037 754.247 390.085C746.803 390.114 741.345 392.31 736.286 398.016C726.64 408.893 716.593 419.495 705.944 429.384C689.191 444.94 669.587 454.136 646.068 453.012C643.283 452.879 640.482 453.066 637.688 453.105C646.44 456.753 649.137 454.966 655.098 461.628C656.055 462.698 657.186 463.611 658.231 464.602C660.73 466.971 663.459 467.585 666.943 466.755C676.347 464.514 685.854 462.709 695.291 460.599C708.079 457.739 721.206 456.163 733.202 450.298C744.856 444.6 756.547 438.968 768.338 433.56C784.228 426.272 803.974 430.893 821.576 433.641C823.995 434.018 826.356 434.768 828.744 435.345C828.73 435.784 828.715 436.223 828.701 436.662C823.717 437.997 818.775 439.525 813.741 440.635C790.182 445.834 767.609 453.089 748.12 468.214C736.8 477 723.362 480.869 709.088 482.067C703.086 482.57 696.674 482.732 691.282 485.017C679.701 489.923 668.662 496.107 657.182 501.878C663.949 508.319 669.444 506.53 678.412 508.233C698.202 511.99 713.409 518.155 733.273 521.522C738.718 522.445 765.642 521.286 765.753 526.116C765.826 529.291 747.533 535.767 744.717 535.874C740.145 536.047 735.454 536.231 730.989 535.431C721.782 533.781 712.702 531.438 703.546 529.487C701.143 528.975 698.656 528.857 696.207 528.558C696.11 528.924 696.013 529.29 695.915 529.656C706.945 537.163 716.694 546.454 731.35 547.875C747.934 549.483 763.159 555.217 773.969 569.003C780.907 577.853 789.872 583.755 799.822 588.767C813.22 595.516 826.228 603.042 839.359 610.314C840.527 610.961 841.371 612.193 842.365 613.153C841.284 614.227 840.375 615.635 839.083 616.3C836.792 617.479 834.33 618.453 831.832 619.087C801.486 626.784 773.241 622.412 747.352 604.348C741.566 600.311 735.707 596.322 729.574 592.855C723.453 589.395 716.812 588.735 709.914 590.931C703.729 592.902 697.421 594.487 691.174 596.266C672.979 601.449 654.776 601.561 636.539 596.457C626.609 593.678 618.34 588.408 612.371 579.962C606.921 572.248 598.421 570.468 589.719 567.122C591.83 572.202 594.118 576.29 595.235 580.676C598.138 592.079 606.203 597.993 616.568 601.285C621.316 602.793 626.435 603.496 631.431 603.792C652.359 605.031 671.411 611.478 689.103 622.737C708.436 635.04 715.415 652.841 713.694 674.841C713.446 678.01 712.265 681.107 711.232 685.422C677.7 667.652 646.877 646.775 611.172 635.319C615.569 647.773 619.735 660.07 624.264 672.232C627.471 680.846 630.141 689.909 634.897 697.636C641.651 708.612 646.214 719.971 647.249 732.735C648.782 751.64 655.18 768.713 666.552 783.841C673.555 793.157 680.924 802.198 688.133 811.359C689.921 813.63 691.728 815.885 693.526 818.148C693.26 818.478 692.993 818.808 692.727 819.138C686.235 816.418 679.561 814.059 673.285 810.908C656.85 802.657 644.368 790.41 637.801 772.975C634.194 763.4 631.294 753.55 628.298 743.755C625.207 733.65 619.362 727.284 608.634 724.127C590.729 718.86 574.152 710.181 558.211 700.476C547.99 694.253 541.468 685.175 539.131 673.337C537.79 666.543 539.122 672.864 537.934 666.041C536.258 656.416 533.339 647.245 527.552 639.254C526.321 637.554 524.231 636.477 522.536 635.113C522.17 635.431 521.805 635.75 521.439 636.068C525.658 669.032 505.628 673.92 536.848 694.688C543.734 699.268 548.546 705.573 552.724 712.64C558.202 721.903 563.74 731.206 570.158 739.818C577.575 749.773 582.558 760.504 584.767 772.666C586.804 783.883 589.099 795.052 591.225 806.253C591.552 807.973 591.58 809.75 591.825 812.331C586.66 809.444 584.662 805.228 582.819 801.13C576.738 787.608 570.002 774.432 557.896 765.313C543.305 754.322 532.583 740.371 523.46 724.764C520.003 718.851 514.804 713.957 509.912 708.004C506.102 716.636 505.083 724.264 505.06 732.128C505.035 740.47 505.347 748.871 504.486 757.139C503.354 768.014 501.261 778.791 499.482 789.593C499.135 791.705 498.61 793.876 497.684 795.785C496.258 798.724 494.179 798.784 492.718 795.83C491.462 793.29 490.508 790.47 490.082 787.673C487.933 773.57 486.122 759.414 483.933 745.317C483.049 739.624 481.589 734.013 480.246 728.399C477.31 716.135 479.22 704.059 481.539 691.714C481.425 690.95 481.258 690.459 480.824 689.183C480.642 690.519 480.572 691.034 480.291 691.75C478.271 698.006 475.708 703.951 474.802 710.139C472.556 725.474 469.255 740.414 463.166 754.749C459.836 762.589 459.221 770.998 460.914 779.4C462.766 788.593 465.334 797.662 466.789 806.911C470.392 829.804 467.789 851.757 453.268 870.651C442.935 884.096 443.54 896.799 444.01 912.323C444.04 913.321 444.234 913.159 444.152 914.526C443.958 915.475 443.233 916.118 443.233 916.118C443.233 916.118 443.406 916.968 440.407 917.507C439.581 917.046 439.22 916.725 438.809 916.036C431.601 899.659 428.556 882.897 430.436 865.462C433.106 840.699 435.937 815.949 439.157 791.252C441.241 775.271 442.092 759.452 438.513 743.566C436.45 734.411 434.845 725.087 436.752 715.698C439.535 701.994 431.683 692.181 425.026 680.926C420.011 690.867 415.739 700.173 417.803 710.616C419.839 720.918 422.696 731.077 425.581 741.187C428.271 750.613 431.806 759.804 434.339 769.266C436.31 776.63 435.085 783.91 430.908 790.45C430.283 791.428 428.766 792.745 428.05 792.542C426.954 792.23 425.554 790.816 425.411 789.722C424.949 786.188 424.707 782.571 424.909 779.016C425.715 764.792 416.824 755.663 410.295 742.612C403.105 728.241 394.356 722.316 397.875 706.995C399.459 700.094 398.424 695.255 398.186 688.118C397.897 679.425 400.243 680.369 398.015 672.054C395.873 668.798 398.863 660.105 395.646 660.952C393.279 668.736 393.997 664.788 391.321 671.726C389.1 677.486 389.117 676.138 386.292 681.663C379.418 695.105 379.473 708.229 385.383 722.409C398.295 753.391 395.02 784.053 379.559 813.263C374.214 823.363 370.366 833.347 370.351 844.755C370.346 849.076 370.33 853.409 370.024 857.716C369.759 861.439 369.263 865.171 368.484 868.817C368.192 870.183 366.811 871.316 365.927 872.556C364.782 871.593 363.032 870.846 362.599 869.63C360.918 864.912 358.978 860.132 358.352 855.219C355.324 831.481 359.472 808.754 368.651 786.773C371.365 780.273 373.909 773.619 375.636 766.809C379.096 753.165 378.07 739.842 370.364 727.645C362.785 715.649 355.068 703.763 355.374 688.587C354.394 690.633 353.849 692.643 353.463 694.682C350.427 710.734 343.456 724.752 331.613 736.102C319.755 747.468 307.844 758.789 295.637 769.775C290.962 773.982 285.466 777.301 280.211 780.828C278.529 781.957 276.422 782.452 273.539 783.635C274.174 779.336 274.245 775.992 275.189 772.914C283.19 746.807 292.038 721.053 306.974 697.857C310.248 692.773 312.964 687.324 315.804 681.971C316.445 680.762 316.528 679.256 316.667 678.694C309.987 682.44 303.49 686.757 296.466 689.89C278.541 697.884 264.116 709.517 254.157 726.696C249.464 734.793 243.779 742.319 238.471 750.054C230.967 760.99 221.45 769.847 209.195 774.94C196.086 780.388 187.601 789.974 181.708 802.335C178.419 809.235 175.489 816.306 172.303 823.257C171.512 824.983 170.358 826.544 169.371 828.18C169.005 828.101 168.639 828.022 168.273 827.942C167.682 824.309 167.013 820.687 166.511 817.041C160.849 775.886 184.245 746.277 211.796 732.131C216.412 729.761 221.101 727.536 225.746 725.223C235.85 720.192 241.639 712.468 242.109 700.775C242.426 692.883 243.492 684.997 244.625 677.166C248.971 647.115 260.461 621.496 288.968 606.559C290.861 605.567 292.41 603.921 294.119 602.579C286.123 603.798 278.634 605.811 271.141 607.812C250.841 613.232 234.783 624.763 222.248 641.497C215.502 650.503 208.617 659.408 201.635 668.232C190.704 682.047 176.343 689.419 158.74 689.988C154.966 690.11 150.938 689.369 147.399 688.036C142.937 686.354 141.937 681.911 144.795 678.081C146.584 675.684 148.857 673.611 151.085 671.582C167.374 656.753 183.304 641.534 201.434 628.823C210.423 622.522 216.208 613.403 220.983 602.238C185.587 612.378 151.24 622.218 116.105 632.283C116.926 630.603 117.221 629.796 117.677 629.094C130.21 609.79 145.977 593.57 167.838 585.762C186.575 579.07 204.381 571.38 219.786 558.287C209.926 557.911 199.933 557.289 189.94 557.282C186.543 557.279 182.796 558.171 179.805 559.771C164.199 568.118 149.054 577.362 133.233 585.261C115.973 593.878 97.9318 597.75 79.0035 589.737C53.8447 579.087 29.1572 586.828 4.11796 591.715C3.89478 590.177 4.52694 593.616 4.11796 591.715C4.13343 591.821 1.98567 589.087 1.45202 589.272ZM595.466 513.54C608.718 472.473 607.073 431.971 589.941 392.406C551.731 304.165 447.276 264.68 359.934 305.193C246.104 357.992 224.51 509.974 320.294 590.59C373.298 635.201 433.898 644.289 498.161 618.415C546.244 599.055 577.902 562.862 595.466 513.54Z" fill="#4E3F0E"/>
</svg>
