<svg width="792" height="684" viewBox="0 0 792 684" fill="none" xmlns="http://www.w3.org/2000/svg">
<path d="M205.635 633.311C210.427 629.21 208.365 624.194 208.13 619.596C207.768 612.507 207.139 605.431 206.533 598.357C206.278 595.378 207.542 593.445 209.861 591.7C229.391 577.002 245.225 558.713 259.828 539.249C260.913 537.804 261.785 536.191 262.703 534.624C264.671 531.266 265.378 527.9 262.779 524.475C260.098 520.942 256.709 518.949 252.186 519.465C246.514 520.111 242.131 523.45 237.945 526.897C224.308 538.128 212.03 550.806 200.227 563.926C195.857 568.784 191.186 570.228 184.863 568.792C171.592 565.779 158.185 563.376 144.88 560.506C134.865 558.346 132.092 551.369 138.059 542.98C146.569 531.015 155.404 519.283 164.107 507.457C167.666 502.619 172.387 502.102 177.763 503.621C186.291 506.031 194.792 508.591 203.817 508.323C223.366 507.744 241.639 502.13 259.159 493.855C275.256 486.253 290.745 477.566 304.344 465.838C306.969 463.574 309.524 461.237 311.542 458.385C312.39 457.187 313.569 455.897 312.703 454.354C311.663 452.502 309.723 453.145 308.245 453.516C305.709 454.152 303.246 455.12 300.799 456.072C292.956 459.121 285.662 463.276 278.412 467.505C276.672 468.52 275.106 469.437 272.922 468.501C262.194 463.905 251.413 459.433 240.666 454.883C239.943 454.576 239.34 453.982 238.77 453.583C238.661 451.471 240.281 450.967 241.417 450.152C249.581 444.301 257.93 438.697 265.899 432.589C270.227 429.271 274.882 428.053 280.085 427.96C295.194 427.69 310.302 427.241 325.412 427.208C330.06 427.198 333.168 425.726 335.443 421.635C340.98 411.681 346.679 401.818 352.413 391.977C354.427 388.52 354.648 385.3 352.606 381.737C347.762 373.287 343.116 364.722 338.348 356.228C336.779 353.432 334.446 352.187 331.118 351.957C319.139 351.126 307.155 351.203 295.164 351.138C289.923 351.11 286.133 352.974 283.274 357.53C274.062 372.212 264.737 386.824 256.483 402.083C254.904 405.004 252.933 406.963 249.812 408.204C240.804 411.787 231.911 415.665 222.957 419.387C221.63 419.939 220.368 420.936 218.453 420.288C217.415 416.435 219.128 412.669 219.678 408.906C220.918 400.425 222.872 392.052 224.184 383.58C224.679 380.382 226.175 378.612 228.895 377.252C237.581 372.91 246.147 368.34 254.072 362.661C255.008 361.989 255.967 361.334 256.821 360.565C258.602 358.963 261.471 357.578 260.309 354.69C259.251 352.061 256.285 352.959 254.112 353.018C236.494 353.492 220.835 360.35 205.968 368.992C176.219 386.285 154.132 410.434 142.802 443.57C139.647 452.797 133.889 457.223 124.162 457.199C113.141 457.171 102.307 459.403 91.4138 460.841C88.9516 461.166 86.5039 461.416 84.0577 460.988C78.9 460.087 76.3835 457.021 76.3666 451.726C76.3525 447.333 78.1439 443.354 79.279 439.232C82.1268 428.889 85.1769 418.602 87.8965 408.226C89.5766 401.816 93.2495 397.98 99.7599 396.483C112.555 393.542 125.324 390.459 137.788 386.249C145.273 383.72 152.613 380.84 159.52 376.946C162.118 375.481 164.554 373.765 166.196 371.193C169.204 366.48 167.374 360.833 162.08 358.507C158.022 356.725 153.707 356.761 149.466 357.313C130.539 359.776 112.023 364.098 93.9073 370.15C90.1544 371.404 86.4987 372.887 83.1078 374.939C79.0295 377.406 75.1511 377.399 71.1167 374.701C64.5514 370.311 57.7733 366.24 51.2647 361.769C48.2354 359.688 45.4242 358.881 41.6569 359.506C31.7476 361.15 21.7342 361.632 11.7336 360.049C5.14256 359.005 2.63111 356.446 1.46905 349.917C0.506698 344.51 0.276914 339.169 1.15755 333.665C1.9924 328.448 4.84034 325.538 9.65158 324.729C20.7426 322.863 31.9092 322.951 42.946 325.034C46.3904 325.684 48.922 325.056 51.6045 323.097C57.7216 318.631 63.9991 314.388 70.1341 309.946C73.4185 307.568 76.5319 307.451 80.2408 309.197C99.312 318.178 119.704 322.408 140.344 325.617C145.694 326.448 151.088 326.962 156.532 326.846C160.881 326.754 164.157 325.061 166.03 321.029C168.023 316.74 166.186 313.314 163.343 310.269C159.407 306.055 154.202 303.841 149.052 301.692C134.289 295.533 118.951 291.211 103.206 288.646C94.3444 287.202 89.1859 282.9 86.9608 273.991C83.8424 261.506 79.8111 249.254 76.4257 236.832C73.7281 226.933 78.202 222.093 88.5212 223.281C101.072 224.726 113.6 226.31 126.268 226.537C135.1 226.696 140.119 230.355 141.897 238.136C149.531 271.528 170.916 294.184 198.722 311.558C214.759 321.579 232.058 328.724 251.248 329.885C254.391 330.075 258.893 331.414 260.253 328.093C261.845 324.206 257.272 322.388 254.695 320.37C247.272 314.557 238.899 310.274 230.613 305.882C228.197 304.602 226.16 303.212 225.629 300.234C223.456 288.053 221.205 275.886 219.013 263.709C218.906 263.115 219.085 262.469 219.142 261.694C219.986 261.694 220.691 261.495 221.21 261.723C231.744 266.354 242.264 271.019 252.769 275.716C255.387 276.886 256.347 279.494 257.573 281.804C265.4 296.554 274.206 310.698 283.387 324.626C285.821 328.318 288.694 330.021 293.136 329.936C305.786 329.696 318.442 329.607 331.092 329.768C335.331 329.822 337.668 328.036 339.613 324.475C343.964 316.509 348.526 308.653 353.235 300.896C354.971 298.036 355.235 295.411 353.833 292.493C348.031 280.424 341.469 268.775 334.573 257.314C332.489 253.852 329.311 252.702 325.375 252.706C308.778 252.725 292.182 252.525 275.586 252.602C271.786 252.619 268.615 251.778 265.549 249.43C257.706 243.421 249.666 237.674 241.721 231.8C240.43 230.845 238.919 230.059 238.411 228.511C238.887 226.737 240.316 226.567 241.488 226.072C250.726 222.169 260.045 218.449 269.173 214.303C273.023 212.553 276.024 212.588 279.646 215.029C286.462 219.624 293.59 223.78 301.214 226.946C303.943 228.08 306.71 229.152 309.532 230.012C311.226 230.529 313.27 230.983 314.511 229.179C315.66 227.507 314.341 226.039 313.451 224.684C308.626 217.343 301.916 211.994 294.631 207.446C271.501 193.009 246.698 182.742 219.676 178.653C206.643 176.681 193.56 176.5 180.572 179.928C171.117 182.423 167.821 180.821 162.144 172.882C155.427 163.486 148.556 154.202 141.811 144.827C140.179 142.559 138.496 140.255 137.326 137.737C134.617 131.907 136.756 126.516 142.828 124.743C156.696 120.695 170.79 117.559 185.064 115.312C191.749 114.259 197.052 116.56 201.835 121.481C214.351 134.356 226.47 147.688 241.058 158.345C243.734 160.3 246.478 162.139 249.558 163.311C253.992 164.997 258.005 163.971 261.321 160.632C264.516 157.414 264.534 153.51 262.988 149.575C261.151 144.9 257.985 141.022 254.837 137.22C241.244 120.803 227.118 104.895 209.796 92.2791C206.743 90.0551 206.521 87.347 206.795 84.035C207.49 75.641 207.891 67.222 208.608 58.8301C208.914 55.252 207.764 52.6233 205.402 49.937C198.489 42.0763 193.217 33.0927 189.463 23.3189C186.659 16.02 188.56 11.0798 195.174 6.85795C197.109 5.62297 199.183 4.58375 201.268 3.61695C210.733 -0.772603 216.498 0.771814 222.477 9.31854C227.892 17.0603 232.53 25.2454 235.419 34.2939C236.358 37.2378 238.077 39.052 240.716 40.3877C248.202 44.1759 255.606 48.1256 263.095 51.9062C266.378 53.5635 267.737 55.9953 267.981 59.7479C269.584 84.3628 277.56 107.218 287.723 129.367C291.343 137.256 296.123 139.932 301.171 138.23C307.558 136.076 310.579 129.855 309.859 121.728C308.256 103.647 303.623 86.2618 297.559 69.3177C294.152 59.7981 295.738 52.755 302.943 45.7182C311.059 37.792 318.238 28.8871 325.744 20.3359C333.16 11.8876 340.394 12.739 345.279 22.7824C350.624 33.7698 355.949 44.7671 361.22 55.7904C365.677 65.1114 364.898 69.0679 357.925 76.6895C338.653 97.7529 328.327 122.829 325.393 151.138C323.609 168.347 323.855 185.452 328.444 202.283C329.708 206.919 331.228 211.469 333.813 215.55C334.849 217.185 335.987 219.345 338.26 218.858C340.273 218.427 340.416 216.203 340.726 214.4C342.624 203.382 341.92 192.302 341.077 181.28C340.76 177.132 341.324 174.115 344.375 171.105C351.061 164.51 357.337 157.497 363.852 150.724C365.635 148.87 367.068 146.53 370.286 145.468C372.561 152.952 372.582 160.829 374.869 168.068C378.617 179.931 375.541 189.998 369.739 200.396C362.916 212.624 356.936 225.364 351.652 238.398C350.202 241.974 350.447 244.966 352.443 248.169C359.165 258.958 365.784 269.808 373.451 279.968C374.964 281.974 376.613 283.069 379.175 283.149C390.66 283.505 402.141 283.972 413.622 284.446C415.882 284.54 417.351 283.351 418.546 281.69C426.059 271.241 433.516 260.755 440.32 249.81C442.476 246.342 442.318 243.136 440.802 239.494C433.998 223.156 425.661 207.568 417.822 191.741C415.38 186.811 414.142 182.231 415.363 176.622C417.288 167.778 418.329 158.742 419.862 149.808C420.099 148.429 420.143 146.828 421.358 145.785C422.775 145.492 423.578 146.464 424.338 147.262C432.415 155.733 440.448 164.246 448.505 172.737C450.336 174.666 450.784 176.96 450.757 179.564C450.66 189.157 450.74 198.751 450.664 208.345C450.643 211.039 451.225 213.602 451.902 216.148C452.327 217.745 452.988 219.452 454.785 219.897C456.87 220.413 458.113 218.819 459.263 217.441C461.086 215.257 462.118 212.66 462.983 209.954C465.159 203.138 466.17 196.058 466.566 189.017C468.099 161.736 466.467 134.824 455.577 109.239C450.487 97.2816 443.876 86.3279 434.968 76.8212C428.353 69.7611 427.628 65.0187 431.784 56.1508C437.039 44.9354 442.34 33.74 447.751 22.6002C452.379 13.0736 459.195 11.922 466.276 19.7282C475.139 29.4974 483.619 39.6276 493.027 48.8781C498.609 54.3668 499.162 60.3679 496.496 67.4352C489.769 85.2722 484.987 103.598 483.995 122.761C483.807 126.398 483.842 130.03 485.964 133.293C489.743 139.106 496.083 139.866 501 135.006C503.266 132.767 504.85 130.044 506.087 127.151C514.813 106.728 521.591 85.5808 524.443 63.5994C525.482 55.5879 528.49 52.0123 535.018 49.2661C540.766 46.8479 546.174 43.6209 551.859 41.0339C554.807 39.6926 556.535 37.7635 557.424 34.6472C560.228 24.825 565.323 16.1407 571.176 7.90548C576.276 0.728088 582.113 -0.765347 590.101 2.72833C606.017 9.68976 608.385 16.9381 599.703 32.1601C595.612 39.3336 591.607 46.5725 585.701 52.4752C584.15 54.0244 584.019 55.7947 584.17 57.9222C584.804 66.8199 585.137 75.739 585.749 84.6386C586.004 88.3577 584.569 90.7236 581.563 92.8845C561.379 107.394 545.791 126.359 531.278 146.289C527.428 151.576 527.625 157.292 531.023 160.886C534.524 164.59 539.899 165.118 545.558 161.757C559.127 153.694 570.46 142.903 581.253 131.492C585.444 127.06 589.572 122.564 593.837 118.205C597.047 114.923 600.757 113.722 605.487 114.875C620.153 118.45 634.908 121.656 649.605 125.108C657.816 127.036 660.242 133.531 655.174 140.403C646.36 152.353 637.351 164.158 628.397 176.003C624.754 180.823 619.981 181.862 614.349 180.241C590.247 173.309 566.529 175.286 543.362 184.151C524.227 191.473 506.348 201.213 490.49 214.45C486.91 217.438 483.92 220.926 481.195 224.664C480.164 226.079 478.497 227.718 479.733 229.529C481.124 231.566 483.393 230.53 485.158 229.894C493.085 227.039 500.804 223.405 507.437 218.352C514.672 212.839 521.103 212.476 528.974 216.68C536.49 220.694 544.629 223.521 552.475 226.913C553.171 227.214 553.728 227.842 554.317 228.294C553.836 230.576 552.049 231.335 550.65 232.357C542.541 238.283 534.326 244.065 526.271 250.063C523.606 252.047 520.861 252.792 517.588 252.771C501.157 252.663 484.724 252.787 468.292 252.669C464.221 252.639 461.349 254.111 459.462 257.709C453.404 269.255 446.766 280.49 441.611 292.518C439.483 297.485 439.436 301.928 442.231 306.647C445.678 312.466 448.793 318.487 451.948 324.475C453.823 328.034 456.456 329.752 460.618 329.729C473.598 329.656 486.582 329.753 499.56 330.01C503.95 330.097 507.008 328.529 509.497 324.91C519.424 310.474 528.185 295.333 536.531 279.946C538.15 276.962 540.216 275.171 543.318 273.997C552.539 270.505 561.67 266.773 570.849 263.168C572.187 262.642 573.495 261.734 575.747 262.669C574.118 270.341 571.731 278.082 570.966 285.982C569.719 298.864 564.455 307.559 551.47 311.352C545.561 313.078 540.541 317.363 535.748 321.412C533.694 323.147 530.618 325.143 532.096 328.251C533.463 331.128 536.817 330.505 539.64 330.272C555.831 328.939 570.696 323.318 584.82 315.673C611.769 301.085 632.773 280.542 645.78 252.328C647.915 247.696 649.461 242.781 651.163 237.955C653.791 230.502 659.148 226.793 666.815 226.565C679.137 226.199 691.383 225.048 703.617 223.612C705.862 223.349 708.264 223.429 710.46 223.936C716.118 225.243 719.116 229.956 717.443 235.554C713.138 249.951 708.648 264.296 703.936 278.563C702.003 284.416 696.841 286.381 691.279 287.497C671.576 291.452 652.474 297.374 634.059 305.476C630.541 307.023 627.438 309.232 625.808 312.933C622.751 319.875 626.967 326.421 634.825 326.628C645.251 326.903 655.379 324.499 665.455 322.298C681.341 318.828 697.132 314.867 711.942 307.85C715.384 306.219 718.26 306.981 721.144 309.023C727.862 313.782 734.652 318.439 741.321 323.264C743.455 324.808 745.445 325.335 748.146 324.902C758.576 323.232 769.057 323.187 779.557 324.523C786.374 325.39 790.177 329.189 791.278 335.907C791.492 337.207 791.754 338.512 791.816 339.823C792.576 356.064 788.991 359.962 772.896 360.067C765.19 360.116 757.451 360.631 749.804 359.091C746.546 358.435 743.786 359.389 741.041 361.298C734.419 365.902 727.587 370.198 720.904 374.714C717.706 376.875 714.77 376.999 711.292 375.064C693.584 365.212 674.215 361.169 654.347 358.963C648.299 358.291 642.253 357.784 636.159 358.026C631.321 358.217 627.38 359.982 625.69 364.791C624.03 369.513 626.406 373.126 629.764 376.157C635.688 381.505 643.119 383.828 650.444 386.258C663.561 390.609 677.07 393.456 690.606 396.02C698.274 397.472 702.792 401.248 704.908 408.938C708.366 421.51 712.517 433.887 716.297 446.371C719.194 455.94 714.521 461.485 704.504 460.518C690.785 459.195 677.074 457.778 663.342 456.618C656.546 456.043 652.648 452.182 650.289 446.2C649.684 444.666 649.074 443.108 648.714 441.504C643.368 417.7 629.156 399.875 610.596 385.283C590.114 369.18 567.341 357.763 541.418 353.526C538.066 352.978 534.59 352.307 531.268 354.65C531.56 358.884 534.915 360.676 537.716 362.731C545.194 368.216 553.642 371.976 561.934 375.964C565 377.44 566.858 379.248 567.541 382.763C569.742 394.095 572.247 405.368 574.623 416.666C574.862 417.802 575.045 418.96 574.183 419.996C572.626 420.603 571.341 419.672 570.016 419.126C563.786 416.556 557.742 413.36 551.316 411.481C541.806 408.699 535.911 402.751 531.308 394.095C524.727 381.721 516.98 369.979 509.847 357.898C507.032 353.13 503.016 351.041 497.599 351.155C485.127 351.416 472.642 350.616 460.175 351.887C456.36 352.276 453.724 353.675 451.894 357.075C447.746 364.78 443.476 372.419 439.194 380.05C437.337 383.36 437.169 386.707 438.975 389.98C444.877 400.676 450.844 411.335 456.863 421.964C458.932 425.618 462.256 426.894 466.386 426.96C482.316 427.216 498.243 427.754 514.173 427.942C519.675 428.006 524.356 429.501 528.721 432.926C536.234 438.821 544.008 444.378 551.657 450.1C552.691 450.873 553.902 451.518 554.35 453.047C553.832 455.101 551.803 455.351 550.255 455.994C540.39 460.096 530.432 463.974 520.613 468.181C517.856 469.362 515.947 468.475 513.81 467.075C505.668 461.741 497.223 456.953 488.083 453.57C485.439 452.591 481.97 450.553 479.96 453.537C478.14 456.239 481.215 458.726 482.848 460.812C489.384 469.16 498.309 474.543 507.123 480.02C525.686 491.556 545.046 501.137 566.848 504.774C582.763 507.43 598.56 507.051 614.22 503.039C620.796 501.354 625.62 503.42 629.408 509.114C636.173 519.287 643.506 529.055 651.137 538.593C652.781 540.649 654.419 542.768 655.668 545.073C658.832 550.912 656.611 556.803 650.24 558.333C635.084 561.973 619.848 565.282 604.61 568.562C599.361 569.692 595.546 566.935 592.137 563.193C580.014 549.887 567.212 537.298 552.861 526.397C549.32 523.707 545.745 521.048 541.496 519.542C537.372 518.08 533.221 517.871 530.005 521.236C526.636 524.76 526.982 529.04 528.886 533.263C530.946 537.832 533.97 541.782 537.156 545.554C550.897 561.821 564.844 577.9 582.304 590.368C585.023 592.309 585.974 594.842 585.722 598.072C585.015 607.129 584.432 616.196 583.661 625.247C583.389 628.451 584.336 630.889 586.486 633.299C593.13 640.748 598.07 649.363 601.978 658.504C605.703 667.218 603.794 672.486 595.87 677.376C580.717 686.727 575.96 685.478 566.752 669.93C562.868 663.373 559.354 656.644 557.153 649.325C556.191 646.124 554.019 644.459 551.261 643.129C544.151 639.7 537.119 636.101 529.95 632.803C526.249 631.101 524.606 628.707 524.372 624.458C522.999 599.52 514.905 576.327 505.62 553.48C505.129 552.272 504.362 551.154 503.597 550.086C500.685 546.02 496.926 543.484 491.791 544.935C486.66 546.385 484.689 550.612 484.292 555.515C483.717 562.631 484.379 569.711 485.755 576.712C488.494 590.656 491.965 604.425 496.464 617.89C498.689 624.552 497.32 629.507 492.242 634.304C483.368 642.688 475.933 652.43 468.063 661.753C466.794 663.257 465.469 664.778 463.928 665.975C458.332 670.32 452.544 669.382 448.866 663.266C446.58 659.466 444.939 655.275 442.976 651.275C438.758 642.676 434.443 634.124 430.313 625.483C426.739 618.006 427.638 612.325 433.49 606.547C455.64 584.683 466.036 557.866 466.972 526.964C467.443 511.41 467.587 495.885 463.864 480.632C462.646 475.642 461.105 470.728 457.876 466.609C455.438 463.5 453.819 463.808 452.445 467.545C450.165 473.745 449.695 480.373 450.602 486.652C452.734 501.406 449.15 513.206 436.949 522.488C431.301 526.785 426.916 532.763 421.725 538.224C418.508 534.526 419.526 530.451 418.757 526.929C417.247 520.012 416.792 512.859 415.238 505.955C413.957 500.264 414.885 495.372 417.459 490.263C425.108 475.076 432.36 459.686 439.957 444.47C442.101 440.175 441.77 436.446 439.597 432.299C433.973 421.565 426.912 411.83 419.666 402.205C417.751 399.662 415.174 398.508 411.978 398.509C401.954 398.511 391.931 398.459 381.908 398.368C379.048 398.342 376.883 399.431 375.149 401.714C367.457 411.836 360.273 422.304 353.478 433.059C350.929 437.092 350.824 440.848 352.611 445.218C359.435 461.905 367.646 477.926 375.491 494.121C376.99 497.216 377.623 500.087 376.879 503.585C374.922 512.784 373.458 522.089 371.59 531.309C371.155 533.457 371.304 535.993 369.334 537.595C368.904 537.555 368.464 537.651 368.281 537.476C358.861 528.485 350.025 518.927 341.739 508.884C339.358 505.998 340.878 502.198 341.123 498.782C341.819 489.056 342.555 479.319 340.584 469.651C340.172 467.627 340.109 464.836 337.509 464.567C335.08 464.316 334.104 466.801 333.081 468.669C328.946 476.221 327.268 484.518 326.764 492.949C325.196 519.188 326.321 545.114 336.232 569.987C341.485 583.17 348.359 595.324 357.677 605.959C364.073 613.26 365.72 620.484 360.572 629.393C354.879 639.247 350.535 649.834 346.011 660.302C341.347 671.091 334.408 672.218 326.569 663.472C317.871 653.767 308.976 644.261 299.786 635.027C295.236 630.456 293.798 625.213 295.834 618.738C300.982 602.362 305.585 585.804 307.683 568.71C308.315 563.555 309.666 558.295 308.174 552.998C306.95 548.652 304.348 545.658 299.928 544.707C295.617 543.779 292.216 545.619 289.607 549.018C285.718 554.085 283.613 560.042 281.752 566.028C276.607 582.575 271.376 599.111 268.778 616.328C268.581 617.631 268.138 619.01 268.372 620.246C269.749 627.525 265.948 631.085 259.821 633.699C253.328 636.469 247.17 640.021 240.762 643.006C237.992 644.297 236.449 646.111 235.599 649.085C232.94 658.393 228.365 666.816 222.956 674.759C216.746 683.88 211.536 685.204 201.519 680.537C200.328 679.983 199.174 679.345 198.019 678.714C188.959 673.77 186.627 667.802 190.715 658.13C194.447 649.297 199.166 640.959 205.635 633.311Z" fill="#1B3E6E"/>
</svg>
