<svg width="117" height="101" viewBox="0 0 117 101" fill="none" xmlns="http://www.w3.org/2000/svg">
<path d="M30.3149 93.6041C31.0234 92.9971 30.7186 92.2547 30.6838 91.5741C30.6302 90.5248 30.5372 89.4774 30.4476 88.4304C30.4099 87.9895 30.5968 87.7033 30.9397 87.445C33.8273 85.2695 36.1686 82.5625 38.3277 79.6815C38.4881 79.4675 38.6171 79.2288 38.7528 78.9969C39.0437 78.4998 39.1482 78.0015 38.7639 77.4945C38.3676 76.9717 37.8666 76.6767 37.1977 76.753C36.3591 76.8487 35.7111 77.3429 35.0922 77.8532C33.0757 79.5156 31.2604 81.3921 29.5153 83.334C28.8691 84.0532 28.1784 84.2668 27.2435 84.0543C25.2813 83.6083 23.299 83.2527 21.3318 82.8279C19.8509 82.5081 19.4409 81.4754 20.3232 80.2337C21.5816 78.4627 22.8878 76.7262 24.1745 74.9756C24.7009 74.2596 25.3989 74.183 26.1937 74.4078C27.4547 74.7646 28.7116 75.1435 30.046 75.1039C32.9364 75.0181 35.6383 74.1872 38.2288 72.9623C40.6088 71.8371 42.8989 70.5513 44.9097 68.8153C45.2979 68.4802 45.6755 68.1343 45.974 67.7122C46.0994 67.5349 46.2736 67.344 46.1456 67.1155C45.9919 66.8414 45.705 66.9366 45.4866 66.9915C45.1116 67.0857 44.7473 67.2289 44.3855 67.3698C43.2259 67.8212 42.1474 68.4361 41.0754 69.0622C40.8181 69.2124 40.5866 69.3481 40.2637 69.2096C38.6774 68.5293 37.0835 67.8674 35.4944 67.1938C35.3875 67.1485 35.2984 67.0604 35.2141 67.0014C35.198 66.6888 35.4375 66.6141 35.6055 66.4936C36.8126 65.6276 38.0471 64.798 39.2253 63.894C39.8653 63.4029 40.5535 63.2226 41.3228 63.2088C43.5568 63.1689 45.7907 63.1024 48.0248 63.0975C48.7121 63.096 49.1715 62.8781 49.5079 62.2726C50.3265 60.7993 51.1693 59.3393 52.0171 57.8827C52.3148 57.371 52.3475 56.8944 52.0456 56.3671C51.3294 55.1163 50.6425 53.8486 49.9375 52.5913C49.7054 52.1774 49.3605 51.9932 48.8685 51.959C47.0973 51.8361 45.3253 51.8475 43.5523 51.8378C42.7774 51.8336 42.217 52.1096 41.7943 52.784C40.4322 54.9572 39.0535 57.12 37.8331 59.3786C37.5996 59.811 37.3082 60.1008 36.8468 60.2845C35.5148 60.8149 34.2 61.3889 32.876 61.9399C32.6799 62.0215 32.4932 62.1691 32.2101 62.0731C32.0567 61.5028 32.3098 60.9455 32.3912 60.3885C32.5746 59.1332 32.8634 57.8939 33.0574 56.6399C33.1306 56.1665 33.3518 55.9044 33.7541 55.7031C35.0383 55.0604 36.3048 54.384 37.4766 53.5434C37.6151 53.444 37.7568 53.3471 37.8831 53.2333C38.1465 52.996 38.5706 52.7911 38.3988 52.3636C38.2424 51.9744 37.8039 52.1074 37.4826 52.1161C34.8775 52.1863 32.5623 53.2013 30.3641 54.4805C25.9655 57.0402 22.6998 60.6146 21.0245 65.5193C20.558 66.8851 19.7066 67.5402 18.2685 67.5366C16.6389 67.5325 15.037 67.8629 13.4264 68.0757C13.0623 68.1238 12.7004 68.1608 12.3387 68.0976C11.5761 67.9641 11.2041 67.5103 11.2015 66.7265C11.1995 66.0763 11.4643 65.4874 11.6322 64.8772C12.0532 63.3464 12.5042 61.8236 12.9063 60.2878C13.1548 59.339 13.6978 58.7712 14.6604 58.5497C16.5523 58.1144 18.4403 57.6581 20.2831 57.0349C21.3899 56.6606 22.4752 56.2342 23.4964 55.6579C23.8805 55.4411 24.2407 55.1871 24.4835 54.8063C24.9283 54.1088 24.6576 53.2728 23.8749 52.9286C23.2749 52.6648 22.637 52.6702 22.0098 52.7519C19.2113 53.1165 16.4737 53.7561 13.7951 54.652C13.2402 54.8376 12.6997 55.0571 12.1983 55.3608C11.5953 55.726 11.0218 55.7249 10.4253 55.3256C9.45459 54.6758 8.4524 54.0732 7.49006 53.4114C7.04215 53.1033 6.62649 52.9839 6.06947 53.0764C4.60431 53.3198 3.12375 53.3911 1.64509 53.1568C0.670554 53.0023 0.299217 52.6235 0.127398 51.6571C-0.0148927 50.8569 -0.048868 50.0662 0.0813404 49.2516C0.20478 48.4794 0.625868 48.0486 1.33724 47.9288C2.97714 47.6526 4.6282 47.6657 6.26007 47.974C6.76935 48.0702 7.14367 47.9772 7.5403 47.6873C8.44476 47.0263 9.37292 46.3983 10.28 45.7408C10.7657 45.3888 11.226 45.3714 11.7744 45.6299C14.5942 46.9593 17.6093 47.5853 20.6611 48.0603C21.4521 48.1834 22.2497 48.2594 23.0546 48.2423C23.6976 48.2286 24.182 47.9781 24.459 47.3812C24.7536 46.7463 24.482 46.2393 24.0616 45.7886C23.4797 45.1648 22.7101 44.8371 21.9487 44.5191C19.7657 43.6074 17.498 42.9676 15.17 42.5879C13.8597 42.3742 13.097 41.7375 12.768 40.4189C12.3069 38.5708 11.7108 36.7574 11.2103 34.9187C10.8114 33.4535 11.4729 32.737 12.9987 32.9129C14.8544 33.1268 16.7067 33.3613 18.5798 33.3949C19.8857 33.4183 20.6278 33.9599 20.8908 35.1116C22.0195 40.0543 25.1814 43.4077 29.2926 45.9794C31.6638 47.4627 34.2217 48.5201 37.059 48.6921C37.5238 48.7202 38.1894 48.9184 38.3905 48.4268C38.6259 47.8514 37.9497 47.5823 37.5688 47.2837C36.4712 46.4233 35.2331 45.7893 34.008 45.1392C33.6508 44.9497 33.3497 44.744 33.2711 44.3032C32.9498 42.5002 32.617 40.6993 32.2928 38.8968C32.277 38.809 32.3035 38.7134 32.3119 38.5987C32.4367 38.5987 32.5409 38.5692 32.6177 38.603C34.1753 39.2885 35.7307 39.9789 37.2839 40.6741C37.6711 40.8474 37.813 41.2333 37.9943 41.5752C39.1516 43.7586 40.4535 45.8521 41.811 47.9136C42.1709 48.46 42.5957 48.7121 43.2526 48.6996C45.1229 48.664 46.9942 48.6509 48.8646 48.6747C49.4913 48.6827 49.8369 48.4183 50.1245 47.8913C50.7678 46.7122 51.4423 45.5494 52.1386 44.4012C52.3953 43.9779 52.4344 43.5893 52.227 43.1575C51.3692 41.371 50.3989 39.6468 49.3792 37.9504C49.0712 37.438 48.6013 37.2676 48.0192 37.2683C45.5654 37.271 43.1114 37.2415 40.6576 37.2529C40.0957 37.2555 39.6269 37.131 39.1736 36.7833C38.014 35.894 36.8252 35.0432 35.6504 34.1738C35.4595 34.0325 35.2362 33.9161 35.161 33.6871C35.2314 33.4245 35.4427 33.3993 35.616 33.326C36.9818 32.7483 38.3597 32.1977 39.7094 31.5839C40.2787 31.325 40.7224 31.3301 41.2579 31.6914C42.2658 32.3715 43.3196 32.9868 44.4468 33.4554C44.8503 33.6232 45.2596 33.7819 45.6768 33.9092C45.9272 33.9856 46.2295 34.053 46.4129 33.7858C46.5828 33.5384 46.3879 33.3211 46.2562 33.1206C45.5429 32.0339 44.5508 31.2422 43.4736 30.5691C40.0535 28.4321 36.3864 26.9125 32.3909 26.3072C30.4639 26.0153 28.5295 25.9885 26.609 26.4959C25.2111 26.8653 24.7238 26.6281 23.8844 25.4529C22.8912 24.0623 21.8754 22.688 20.878 21.3004C20.6367 20.9646 20.3879 20.6236 20.2149 20.251C19.8143 19.388 20.1306 18.59 21.0284 18.3276C23.0788 17.7284 25.1627 17.2643 27.2732 16.9317C28.2617 16.7759 29.0457 17.1165 29.753 17.8448C31.6036 19.7504 33.3955 21.7239 35.5524 23.3013C35.9481 23.5906 36.3537 23.8629 36.8092 24.0363C37.4647 24.2859 38.0581 24.134 38.5484 23.6397C39.0208 23.1635 39.0234 22.5856 38.7949 22.0032C38.5234 21.3112 38.0552 20.7372 37.5897 20.1744C35.5798 17.7445 33.4913 15.3898 30.9301 13.5224C30.4786 13.1932 30.4458 12.7924 30.4863 12.3022C30.5891 11.0597 30.6485 9.81356 30.7545 8.57143C30.7996 8.04179 30.6296 7.6527 30.2804 7.25509C29.2583 6.09158 28.4788 4.76186 27.9236 3.31517C27.509 2.23481 27.7901 1.50358 28.7681 0.878675C29.0542 0.695876 29.3609 0.542055 29.6691 0.398952C31.0686 -0.250775 31.921 -0.0221753 32.805 1.24288C33.6058 2.3888 34.2915 3.60032 34.7186 4.93965C34.8575 5.3754 35.1117 5.64393 35.5019 5.84163C36.6086 6.40235 37.7034 6.98697 38.8107 7.54657C39.2961 7.79187 39.4971 8.15182 39.5332 8.70727C39.7701 12.3507 40.9495 15.7337 42.4522 19.0121C42.9873 20.1797 43.6942 20.5759 44.4406 20.3239C45.3848 20.0051 45.8316 19.0842 45.7251 17.8813C45.4881 15.2051 44.8032 12.6318 43.9065 10.1238C43.4027 8.7147 43.6372 7.6722 44.7026 6.63063C45.9026 5.45743 46.9641 4.13935 48.0739 2.87363C49.1703 1.62315 50.2399 1.74917 50.9623 3.23576C51.7525 4.86207 52.5398 6.48986 53.3192 8.12149C53.9782 9.50115 53.8631 10.0868 52.8321 11.2149C49.9826 14.3326 48.4558 18.0443 48.0219 22.2345C47.7581 24.7818 47.7946 27.3136 48.4731 29.8048C48.66 30.491 48.8846 31.1646 49.2669 31.7686C49.42 32.0106 49.5884 32.3303 49.9244 32.2583C50.2221 32.1945 50.2431 31.8652 50.2891 31.5984C50.5696 29.9675 50.4655 28.3275 50.341 26.6961C50.2941 26.0821 50.3774 25.6355 50.8286 25.1899C51.8171 24.2138 52.7451 23.1757 53.7084 22.1732C53.972 21.8988 54.184 21.5525 54.6598 21.3953C54.9961 22.503 54.9992 23.669 55.3374 24.7405C55.8915 26.4963 55.4367 27.9865 54.5788 29.5256C53.57 31.3355 52.6858 33.2212 51.9045 35.1505C51.6902 35.6797 51.7264 36.1227 52.0214 36.5967C53.0153 38.1937 53.9941 39.7996 55.1277 41.3036C55.3514 41.6005 55.5952 41.7626 55.974 41.7743C57.6721 41.8271 59.3697 41.8961 61.0672 41.9664C61.4015 41.9802 61.6187 41.8042 61.7953 41.5584C62.9062 40.0118 64.0087 38.4597 65.0148 36.8397C65.3336 36.3263 65.3102 35.8518 65.086 35.3127C64.08 32.8943 62.8473 30.587 61.6882 28.2444C61.3272 27.5147 61.1442 26.8368 61.3247 26.0065C61.6093 24.6976 61.7632 23.36 61.9899 22.0376C62.0249 21.8335 62.0315 21.5966 62.211 21.4422C62.4207 21.3988 62.5393 21.5427 62.6517 21.6607C63.8459 22.9147 65.0337 24.1747 66.2249 25.4315C66.4957 25.7171 66.5619 26.0565 66.558 26.442C66.5436 27.8619 66.5554 29.2821 66.5442 30.7021C66.541 31.1009 66.6272 31.4802 66.7273 31.8572C66.7901 32.0935 66.8878 32.3461 67.1535 32.4119C67.4617 32.4883 67.6456 32.2524 67.8157 32.0484C68.0851 31.7253 68.2378 31.3408 68.3656 30.9402C68.6874 29.9315 68.8368 28.8834 68.8954 27.8412C69.1221 23.8032 68.8808 19.8197 67.2706 16.0328C66.518 14.2629 65.5405 12.6415 64.2234 11.2344C63.2453 10.1894 63.1381 9.48743 63.7526 8.17483C64.5297 6.51478 65.3134 4.85766 66.1135 3.20879C66.7978 1.7987 67.8055 1.62824 68.8526 2.78368C70.163 4.22969 71.4169 5.72913 72.8079 7.09835C73.6332 7.91077 73.715 8.79904 73.3208 9.84511C72.3261 12.4853 71.619 15.1977 71.4724 18.0342C71.4446 18.5726 71.4498 19.1101 71.7636 19.5932C72.3223 20.4535 73.2597 20.5661 73.9868 19.8467C74.3218 19.5153 74.5561 19.1123 74.7389 18.684C76.0292 15.6611 77.0313 12.531 77.4529 9.27736C77.6066 8.09153 78.0514 7.56227 79.0166 7.15578C79.8665 6.79786 80.666 6.3202 81.5066 5.93729C81.9424 5.73875 82.1979 5.45321 82.3295 4.99195C82.7441 3.5381 83.4974 2.25268 84.3627 1.03373C85.1169 -0.0286475 85.9799 -0.249701 87.1609 0.267422C89.5143 1.29783 89.8644 2.3707 88.5807 4.62381C87.9758 5.68561 87.3837 6.75709 86.5104 7.63079C86.2811 7.86009 86.2617 8.12212 86.284 8.43703C86.3777 9.75403 86.4271 11.0742 86.5174 12.3915C86.5552 12.942 86.3431 13.2922 85.8986 13.612C82.9142 15.7597 80.6095 18.5668 78.4635 21.5168C77.8943 22.2993 77.9234 23.1454 78.4258 23.6774C78.9435 24.2257 79.7383 24.3039 80.5749 23.8062C82.5812 22.6129 84.2569 21.0156 85.8527 19.3265C86.4725 18.6705 87.0828 18.0051 87.7134 17.3598C88.188 16.8741 88.7365 16.6964 89.4359 16.867C91.6044 17.3962 93.786 17.8707 95.9591 18.3816C97.1732 18.667 97.5319 19.6284 96.7824 20.6456C95.4792 22.4144 94.1472 24.1617 92.8233 25.915C92.2846 26.6284 91.579 26.7821 90.7461 26.5423C87.1826 25.5162 83.6756 25.8089 80.2503 27.121C77.421 28.2048 74.7775 29.6465 72.4328 31.6057C71.9034 32.048 71.4613 32.5643 71.0585 33.1176C70.906 33.327 70.6594 33.5696 70.8423 33.8377C71.0479 34.1392 71.3834 33.9858 71.6444 33.8917C72.8165 33.4691 73.9577 32.9312 74.9384 32.1833C76.0083 31.3673 76.9592 31.3136 78.1229 31.9358C79.2341 32.53 80.4376 32.9483 81.5977 33.4505C81.7006 33.4951 81.7829 33.588 81.8701 33.6548C81.799 33.9927 81.5347 34.105 81.3279 34.2563C80.1289 35.1335 78.9143 35.9892 77.7232 36.8771C77.3291 37.1708 76.9234 37.281 76.4394 37.2778C74.0099 37.262 71.5802 37.2803 69.1507 37.2628C68.5487 37.2584 68.1241 37.4762 67.845 38.0088C66.9493 39.7178 65.9678 41.3807 65.2057 43.1612C64.891 43.8963 64.8841 44.5539 65.2973 45.2524C65.8069 46.1137 66.2675 47.0049 66.734 47.8913C67.0112 48.4181 67.4005 48.6724 68.016 48.6689C69.9352 48.6581 71.855 48.6725 73.7739 48.7106C74.4229 48.7235 74.8751 48.4914 75.2431 47.9556C76.7108 45.819 78.0062 43.5777 79.2402 41.3003C79.4796 40.8586 79.7851 40.5935 80.2438 40.4197C81.6072 39.9029 82.9573 39.3504 84.3145 38.8168C84.5123 38.739 84.7057 38.6045 85.0386 38.743C84.7978 39.8785 84.4449 41.0243 84.3317 42.1937C84.1473 44.1004 83.369 45.3875 81.4491 45.9488C80.5754 46.2043 79.8331 46.8386 79.1245 47.4379C78.8208 47.6947 78.366 47.9902 78.5845 48.4503C78.7867 48.876 79.2825 48.7838 79.7 48.7494C82.094 48.5521 84.2918 47.72 86.3801 46.5884C90.3647 44.4292 93.4704 41.3885 95.3935 37.2124C95.7093 36.5267 95.9377 35.7992 96.1894 35.0848C96.5779 33.9818 97.37 33.4328 98.5037 33.399C100.326 33.3448 102.136 33.1745 103.945 32.9619C104.277 32.9229 104.632 32.9348 104.957 33.0099C105.794 33.2033 106.237 33.9009 105.989 34.7294C105.353 36.8604 104.689 38.9838 103.992 41.0955C103.707 41.9618 102.943 42.2527 102.121 42.418C99.2077 43.0033 96.3833 43.8799 93.6605 45.0791C93.1403 45.3082 92.6815 45.6351 92.4405 46.1829C91.9886 47.2104 92.6119 48.1793 93.7738 48.21C95.3153 48.2507 96.8128 47.8949 98.3026 47.5691C100.651 47.0554 102.986 46.4692 105.176 45.4305C105.685 45.1891 106.11 45.3019 106.537 45.6042C107.53 46.3085 108.534 46.9978 109.52 47.7121C109.835 47.9406 110.13 48.0186 110.529 47.9546C112.071 47.7073 113.621 47.7006 115.173 47.8983C116.181 48.0267 116.744 48.5891 116.907 49.5833C116.938 49.7758 116.977 49.9689 116.986 50.163C117.098 52.567 116.568 53.144 114.189 53.1594C113.049 53.1668 111.905 53.243 110.774 53.015C110.293 52.9179 109.884 53.0591 109.479 53.3417C108.499 54.0231 107.489 54.6591 106.501 55.3275C106.028 55.6474 105.594 55.6657 105.08 55.3793C102.462 53.9211 99.5979 53.3226 96.6602 52.9961C95.766 52.8967 94.8721 52.8216 93.9709 52.8573C93.2557 52.8857 92.673 53.147 92.4231 53.8587C92.1776 54.5576 92.5289 55.0924 93.0255 55.5411C93.9014 56.3327 95.0001 56.6764 96.0832 57.0362C98.0225 57.6803 100.02 58.1017 102.021 58.4811C103.155 58.6961 103.823 59.2549 104.136 60.3932C104.647 62.254 105.261 64.0861 105.82 65.9339C106.248 67.3503 105.557 68.171 104.076 68.028C102.048 67.8321 100.021 67.6224 97.9902 67.4506C96.9853 67.3655 96.4091 66.794 96.0602 65.9086C95.9707 65.6815 95.8806 65.4509 95.8273 65.2135C95.0369 61.6902 92.9355 59.0517 90.1913 56.8919C87.1628 54.5084 83.7958 52.8185 79.9628 52.1913C79.4672 52.1102 78.9533 52.0109 78.462 52.3577C78.5053 52.9845 79.0014 53.2496 79.4155 53.5538C80.5211 54.3657 81.7702 54.9222 82.9962 55.5126C83.4497 55.7309 83.7244 55.9987 83.8253 56.5188C84.1507 58.1962 84.5211 59.8648 84.8724 61.5371C84.9077 61.7052 84.9348 61.8766 84.8074 62.03C84.5771 62.1198 84.3872 61.9821 84.1913 61.9012C83.2701 61.5208 82.3764 61.0478 81.4263 60.7696C80.0202 60.3579 79.1486 59.4774 78.4679 58.1962C77.4949 56.3647 76.3495 54.6266 75.2948 52.8384C74.8786 52.1327 74.2849 51.8235 73.4839 51.8403C71.6398 51.8791 69.7939 51.7606 67.9504 51.9487C67.3864 52.0063 66.9966 52.2134 66.726 52.7167C66.1127 53.8571 65.4814 54.9878 64.8483 56.1173C64.5736 56.6073 64.5488 57.1027 64.8159 57.5871C65.6885 59.1703 66.5708 60.748 67.4608 62.3213C67.7667 62.8622 68.2581 63.051 68.8688 63.0608C71.2242 63.0987 73.5791 63.1783 75.9345 63.2061C76.748 63.2157 77.4401 63.4368 78.0854 63.9438C79.1963 64.8164 80.3458 65.639 81.4767 66.4858C81.6296 66.6003 81.8086 66.6958 81.8749 66.9221C81.7983 67.2261 81.4984 67.2631 81.2695 67.3584C79.8109 67.9654 78.3385 68.5394 76.8867 69.1622C76.479 69.337 76.1967 69.2056 75.8808 68.9984C74.6769 68.2089 73.4282 67.5002 72.0769 66.9994C71.6859 66.8545 71.1731 66.553 70.8758 66.9947C70.6066 67.3946 71.0613 67.7626 71.3028 68.0714C72.2693 69.3071 73.5888 70.1039 74.892 70.9146C77.6367 72.6221 80.4993 74.0402 83.7228 74.5786C86.0759 74.9716 88.4118 74.9156 90.7271 74.3218C91.6994 74.0724 92.4128 74.3781 92.9728 75.221C93.9731 76.7267 95.0573 78.1725 96.1856 79.5844C96.4286 79.8886 96.6708 80.2023 96.8555 80.5434C97.3233 81.4077 96.995 82.2797 96.053 82.5062C93.8121 83.045 91.5593 83.5348 89.3063 84.0202C88.5301 84.1875 87.966 83.7794 87.462 83.2256C85.6695 81.256 83.7766 79.3927 81.6548 77.7792C81.1312 77.381 80.6026 76.9873 79.9744 76.7644C79.3645 76.548 78.7508 76.5172 78.2753 77.0151C77.7772 77.5368 77.8283 78.1703 78.1098 78.7954C78.4144 79.4717 78.8616 80.0563 79.3327 80.6147C81.3644 83.0224 83.4265 85.4024 86.0082 87.2478C86.4101 87.5351 86.5508 87.91 86.5135 88.3882C86.409 89.7288 86.3228 91.0709 86.2088 92.4106C86.1685 92.8848 86.3086 93.2456 86.6265 93.6024C87.6089 94.705 88.3393 95.9801 88.9171 97.3331C89.4679 98.623 89.1855 99.4027 88.0139 100.127C85.7735 101.511 85.0701 101.326 83.7086 99.0244C83.1343 98.0538 82.6148 97.0578 82.2894 95.9744C82.1471 95.5007 81.826 95.2542 81.4182 95.0574C80.3669 94.5498 79.3272 94.0172 78.2672 93.529C77.72 93.277 77.4771 92.9227 77.4425 92.2938C77.2394 88.6026 76.0427 85.1696 74.6698 81.7878C74.5972 81.609 74.4838 81.4436 74.3707 81.2855C73.9402 80.6836 73.3844 80.3082 72.6251 80.523C71.8664 80.7376 71.575 81.3633 71.5164 82.089C71.4313 83.1423 71.5293 84.1903 71.7326 85.2265C72.1376 87.2906 72.6509 89.3286 73.316 91.3216C73.6451 92.3076 73.4425 93.0411 72.6918 93.7511C71.3797 94.9921 70.2804 96.4341 69.1168 97.814C68.929 98.0367 68.7332 98.2617 68.5053 98.4389C67.678 99.0821 66.8221 98.9432 66.2783 98.038C65.9403 97.4755 65.6976 96.8552 65.4075 96.2631C64.7838 94.9903 64.1458 93.7245 63.5351 92.4454C63.0067 91.3387 63.1396 90.4979 64.0049 89.6427C67.2799 86.4063 68.8171 82.4371 68.9555 77.863C69.0251 75.5608 69.0463 73.2629 68.4959 71.0051C68.3158 70.2666 68.088 69.5391 67.6105 68.9295C67.25 68.4693 67.0106 68.5149 66.8075 69.068C66.4705 69.9858 66.4009 70.9668 66.5351 71.8961C66.8503 74.08 66.3203 75.8266 64.5163 77.2006C63.6813 77.8366 63.0328 78.7214 62.2653 79.5298C61.7897 78.9824 61.9403 78.3791 61.8265 77.8578C61.6032 76.834 61.5359 75.7752 61.3061 74.7533C61.1167 73.9109 61.254 73.1869 61.6345 72.4307C62.7656 70.1827 63.8379 67.9047 64.961 65.6526C65.2781 65.0168 65.2292 64.4649 64.9079 63.851C64.0763 62.2623 63.0322 60.8212 61.9608 59.3966C61.6778 59.0202 61.2967 58.8494 60.8241 58.8495C59.3421 58.8499 57.86 58.8422 56.378 58.8287C55.9552 58.8248 55.6352 58.986 55.3787 59.3239C54.2414 60.8221 53.1792 62.3717 52.1745 63.9636C51.7977 64.5605 51.7821 65.1165 52.0463 65.7633C53.0553 68.2333 54.2693 70.6046 55.4294 73.0018C55.651 73.4598 55.7446 73.8848 55.6345 74.4025C55.3451 75.7641 55.1288 77.1414 54.8525 78.5061C54.7882 78.8241 54.8103 79.1994 54.5189 79.4366C54.4553 79.4306 54.3904 79.4449 54.3633 79.419C52.9704 78.0882 51.6639 76.6734 50.4388 75.1868C50.0868 74.7597 50.3116 74.1973 50.3477 73.6917C50.4506 72.252 50.5594 70.8107 50.2681 69.3798C50.2071 69.0802 50.1978 68.6671 49.8134 68.6273C49.4543 68.5901 49.3099 68.958 49.1587 69.2343C48.5472 70.3522 48.2992 71.5804 48.2247 72.8283C47.9928 76.712 48.1591 80.5495 49.6245 84.2311C50.4013 86.1825 51.4177 87.9815 52.7953 89.5556C53.741 90.6363 53.9845 91.7055 53.2234 93.0243C52.3816 94.4827 51.7394 96.0499 51.0704 97.5993C50.3809 99.1963 49.3549 99.363 48.1959 98.0685C46.9097 96.632 45.5945 95.2249 44.2357 93.8581C43.563 93.1815 43.3504 92.4055 43.6514 91.4471C44.4126 89.0231 45.0931 86.5723 45.4033 84.0422C45.4969 83.2791 45.6966 82.5006 45.476 81.7165C45.295 81.0732 44.9103 80.63 44.2567 80.4892C43.6193 80.3519 43.1165 80.6242 42.7307 81.1274C42.1557 81.8773 41.8444 82.7592 41.5692 83.6452C40.8086 86.0944 40.0351 88.542 39.651 91.0903C39.6219 91.2832 39.5563 91.4874 39.5909 91.6703C39.7946 92.7477 39.2326 93.2746 38.3266 93.6616C37.3666 94.0716 36.4561 94.5974 35.5086 95.0392C35.0991 95.2302 34.8709 95.4988 34.7453 95.939C34.3521 97.3167 33.6756 98.5635 32.8759 99.7392C31.9577 101.089 31.1873 101.285 29.7063 100.594C29.5302 100.512 29.3596 100.418 29.1888 100.325C27.8491 99.5927 27.5044 98.7093 28.1087 97.2777C28.6606 95.9703 29.3583 94.7362 30.3149 93.6041Z" fill="#1B3E6E"/>
</svg>
